<?xml version="1.0" encoding="utf-8"?>
<!-- Generator: Adobe Illustrator 16.0.0, SVG Export Plug-In . SVG Version: 6.00 Build 0)  -->
<!DOCTYPE svg PUBLIC "-//W3C//DTD SVG 1.1//EN" "http://www.w3.org/Graphics/SVG/1.1/DTD/svg11.dtd">
<svg version="1.1" id="Layer_1" xmlns="http://www.w3.org/2000/svg" xmlns:xlink="http://www.w3.org/1999/xlink" x="0px" y="0px"
	 width="572.881px" height="361.348px" viewBox="0 0 572.881 361.348" enable-background="new 0 0 572.881 361.348"
	 xml:space="preserve">
<path fill="#0A95F2" d="M418.012,88c0,34.668-54.19,136.907-85.261,192.678c-6.532,11.73-21.338,15.944-33.068,9.411
	c-3.951-2.201-7.211-5.46-9.411-9.411c-31.07-55.771-85.261-158.01-85.261-192.678c0-48.601,47.683-88,106.501-88
	S418.012,39.399,418.012,88z"/>
<circle fill="#FFFFFF" cx="312.012" cy="87" r="58"/>
<ellipse fill="#0A95F2" cx="311.512" cy="354.856" rx="84.092" ry="6.492"/>
<circle opacity="0.4" fill="#0A95F2" enable-background="new    " cx="43.18" cy="132.432" r="19.986"/>
<path fill="#3F3D56" d="M510.77,235.53c-157.39-59-349.35-1.48-460.18,116.18c-0.63,0.66-1.261,1.33-1.87,2h-1.69
	c0.58-0.67,1.181-1.34,1.771-2C161.93,225.1,351.341,174.639,510.77,235.53z"/>
<path fill="#3F3D56" d="M553.78,255.1c-13.911-7.42-28.276-13.956-43.01-19.57C525.542,241.052,539.913,247.591,553.78,255.1z"/>
<circle opacity="0.4" fill="#0A95F2" enable-background="new    " cx="467.64" cy="174.315" r="21.92"/>
<path fill="#3F3D56" d="M470.082,342.921c1.694,6.262,7.496,10.141,7.496,10.141s3.056-6.274,1.361-12.536
	c-1.693-6.262-7.496-10.141-7.496-10.141S468.387,336.659,470.082,342.921z"/>
<path fill="#0A95F2" d="M472.571,341.575c4.648,4.525,5.216,11.48,5.216,11.48s-6.969-0.38-11.617-4.905
	c-4.647-4.524-5.216-11.48-5.216-11.48S467.923,337.051,472.571,341.575z"/>
<path fill="#3F3D56" d="M3.36,255.855v9.66l-0.48,0.52v-10.279C3.04,255.785,3.2,255.825,3.36,255.855z"/>
<path fill="#CCCCCC" d="M34.14,351.705c-0.141,0.23-0.29,0.461-0.44,0.69H2.88v-96.06l0.48-0.48l4.09,4.65v-6.8h13v21.579
	l13.13,14.91l0.12,0.141c0.16,0.5,0.311,1,0.46,1.5c0.001,0.007,0.005,0.015,0.01,0.02c1.97,6.302,3.585,12.708,4.841,19.19
	C41.87,326.336,41.44,340.355,34.14,351.705z"/>
<rect x="5.427" y="308.953" fill="#3F3D56" width="8.274" height="6.896"/>
<rect x="5.427" y="321.365" fill="#3F3D56" width="8.274" height="6.896"/>
<path fill="#3F3D56" d="M268.588,295.851l-4.137-6.895l38.614-33.099c28.547-13.74,62.958-9.775,99.294,0v9.653l-35.856,38.615
	L325.13,312.4L268.588,295.851z"/>
<path fill="#CCCCCC" d="M419.451,275.282c6.857-7.628,7.81-14.881,0-21.577h-13v6.804l-4.092-4.65l-33.098,33.099l-5.518,5.516
	l-6.895,27.582l12.412,30.339h63.437v-62.058L419.451,275.282z"/>
<path fill="#F2F2F2" d="M264.451,288.956h104.81v63.438h-104.81C251.771,338.676,258.358,313.671,264.451,288.956z"/>
<rect x="332.716" y="308.953" fill="#3F3D56" width="22.065" height="19.308"/>
<rect x="304.444" y="308.263" fill="#CCCCCC" width="19.308" height="44.131"/>
<polygon fill="#3F3D56" points="282.379,315.159 282.379,308.264 274.105,308.264 274.105,315.159 281.689,315.159 "/>
<polygon fill="#3F3D56" points="281.689,320.675 274.105,320.675 274.105,327.571 282.379,327.571 282.379,320.675 "/>
<rect x="287.895" y="308.263" fill="#3F3D56" width="8.274" height="6.896"/>
<rect x="287.895" y="320.676" fill="#3F3D56" width="8.274" height="6.895"/>
<polygon fill="#3F3D56" points="398.911,315.849 398.911,308.953 390.636,308.953 390.636,315.849 398.221,315.849 "/>
<polygon fill="#3F3D56" points="398.221,321.365 390.636,321.365 390.636,328.26 398.911,328.26 398.911,321.365 "/>
<rect x="404.427" y="308.953" fill="#3F3D56" width="8.274" height="6.896"/>
<rect x="404.427" y="321.365" fill="#3F3D56" width="8.274" height="6.896"/>
<polygon fill="#3F3D56" points="81.966,180.01 75.071,174.493 113.685,140.016 211.599,140.016 211.599,170.356 148.162,213.108 "/>
<path fill="#CCCCCC" d="M229.451,159.355v-18.65h-13v4.567l-4.852-5.257l-31.72,34.478l-12.411,8.274l-19.244,140.604l29.022,29.022
	h67.45c10.335-51.987,18.53-105.395,0-176.521L229.451,159.355z"/>
<path fill="#F2F2F2" d="M75.07,174.493h104.811v177.9H75.07C63.601,283.281,58,219.188,75.07,174.493z"/>
<rect x="115.754" y="308.953" fill="#CCCCCC" width="19.307" height="43.441"/>
<polygon fill="#3F3D56" points="95.067,321.365 95.067,314.47 86.793,314.47 86.793,321.365 94.378,321.365 "/>
<polygon fill="#3F3D56" points="94.378,326.881 86.793,326.881 86.793,333.777 95.067,333.777 95.067,326.881 "/>
<rect x="100.584" y="314.469" fill="#3F3D56" width="8.274" height="6.896"/>
<polygon fill="#3F3D56" points="150.92,326.881 143.335,326.881 143.335,333.777 151.609,333.777 151.609,326.881 "/>
<rect x="157.126" y="314.469" fill="#3F3D56" width="8.274" height="6.896"/>
<rect x="157.126" y="326.881" fill="#3F3D56" width="8.274" height="6.896"/>
<polygon fill="#3F3D56" points="209.53,183.457 209.53,176.562 201.256,176.562 201.256,183.457 208.841,183.457 "/>
<polygon fill="#3F3D56" points="208.841,188.974 201.256,188.974 201.256,195.869 209.53,195.869 209.53,188.974 "/>
<rect x="215.047" y="176.561" fill="#3F3D56" width="8.274" height="6.896"/>
<rect x="215.047" y="188.973" fill="#3F3D56" width="8.274" height="6.896"/>
<polygon fill="#3F3D56" points="209.53,222.072 209.53,215.176 201.256,215.176 201.256,222.072 208.841,222.072 "/>
<polygon fill="#3F3D56" points="208.841,227.588 201.256,227.588 201.256,234.483 209.53,234.483 209.53,227.588 "/>
<rect x="215.047" y="215.176" fill="#3F3D56" width="8.274" height="6.896"/>
<rect x="215.047" y="227.588" fill="#3F3D56" width="8.274" height="6.896"/>
<polygon fill="#3F3D56" points="209.53,260.686 209.53,253.79 201.256,253.79 201.256,260.686 208.841,260.686 "/>
<polygon fill="#3F3D56" points="208.841,266.202 201.256,266.202 201.256,273.097 209.53,273.097 209.53,266.202 "/>
<rect x="215.047" y="253.79" fill="#3F3D56" width="8.274" height="6.896"/>
<rect x="215.047" y="266.202" fill="#3F3D56" width="8.274" height="6.896"/>
<polygon fill="#3F3D56" points="209.53,299.3 209.53,292.404 201.256,292.404 201.256,299.3 208.841,299.3 "/>
<polygon fill="#3F3D56" points="208.841,304.816 201.256,304.816 201.256,311.711 209.53,311.711 209.53,304.816 "/>
<rect x="215.047" y="292.404" fill="#3F3D56" width="8.274" height="6.896"/>
<rect x="215.047" y="304.816" fill="#3F3D56" width="8.274" height="6.895"/>
<path fill="#3F3D56" d="M-330.114,175.182h79.986v16.549c-25.638-7.075-52.374-6.568-79.986,0V175.182z"/>
<path fill="#3F3D56" d="M-314.842,201.512c24.965,7.355,51.627,7.355,79.986,0v16.549h-79.986V201.512z"/>
<path fill="#3F3D56" d="M-394.828,235.826h79.986v16.55c-27.259-8.705-53.949-9.115-79.986,0V235.826z"/>
<path fill="#3F3D56" d="M-325.207,279.588c26.086,10.054,52.772,9.635,79.986,0v16.549h-79.986V279.588z"/>
<path fill="#3F3D56" d="M516.68,254h56.2v27.08l-5.021,1.57l-16.7,5.212l-26.2-6.069l-26.17-6.064l-13.819-3.201l-6.9-2.553
	C483.81,262.098,494.251,255.904,516.68,254z"/>
<path fill="#F2F2F2" d="M572.881,269.974v82.421H478.07c-0.03-0.051-0.05-0.098-0.08-0.148v-0.005
	c-0.022-0.057-0.049-0.113-0.08-0.166c-1.479-2.979-2.807-5.951-3.979-8.914c-9.95-25.078-8.87-49.494,4.14-73.188H572.881z"/>
<rect x="518.754" y="308.953" fill="#CCCCCC" width="19.307" height="43.441"/>
<polygon fill="#3F3D56" points="498.067,321.365 498.067,314.47 489.794,314.47 489.794,321.365 497.379,321.365 "/>
<polygon fill="#3F3D56" points="497.379,326.881 489.794,326.881 489.794,333.777 498.067,333.777 498.067,326.881 "/>
<rect x="503.584" y="314.469" fill="#3F3D56" width="8.274" height="6.896"/>
<rect x="503.584" y="326.881" fill="#3F3D56" width="8.274" height="6.896"/>
<polygon fill="#3F3D56" points="554.609,321.365 554.609,314.47 546.336,314.47 546.336,321.365 553.921,321.365 "/>
<polygon fill="#3F3D56" points="553.921,326.881 546.336,326.881 546.336,333.777 554.609,333.777 554.609,326.881 "/>
<rect x="560.126" y="314.469" fill="#3F3D56" width="8.274" height="6.896"/>
<rect x="560.126" y="326.881" fill="#3F3D56" width="8.274" height="6.896"/>
<path fill="#3F3D56" d="M498.793,222h11.886c24.412,0,44.202,19.79,44.202,44.202l0,0h-56.088V222z"/>
<path fill="#3F3D56" d="M-346.207,157.908h11.886c24.412,0,44.201,19.79,44.201,44.203l0,0l0,0h-56.087V157.908z"/>
<path fill="#3F3D56" d="M328.793,213h11.886c24.412,0,44.202,19.79,44.202,44.202l0,0h-56.088V213z"/>
<rect x="498.793" y="282.751" fill="#3F3D56" width="56.088" height="16.549"/>
<rect x="2.881" y="351.71" fill="#3F3D56" width="570" height="2"/>
<rect x="53.451" y="272.705" fill="#3F3D56" width="2" height="79"/>
<path fill="#0A95F2" d="M73.909,282.773c0.127,27.624-19.309,50.108-19.309,50.108s-24.889-22.782-19.769-49.929
	c5.149-27.301,21.199-49.992,19.308-50.108C54.139,232.844,73.781,255.148,73.909,282.773z"/>
<rect x="253.451" y="272.705" fill="#3F3D56" width="2" height="79"/>
<path fill="#0A95F2" d="M273.909,282.773c1.803,27.565-19.309,50.108-19.309,50.108s-19.642-22.305-19.769-49.929
	s19.308-50.108,19.308-50.108C252.245,240.417,272.45,260.469,273.909,282.773z"/>
<polygon fill="#3F3D56" points="-456.487,219.235 -369.613,214.985 -333.17,245.404 -339.613,251.221 -397.322,249.923 "/>
<path fill="#3F3D56" d="M38.83,285.455l-4.68,4.23l-0.57,0.51l-1.189,1.08l-29.511-0.66v-34.859c-0.96-0.21-1.92-0.41-2.88-0.601
	l2.391-0.12l0.489,0.41l4.57,3.811l13,10.859l14.521,12.12L38.83,285.455z"/>
<polygon fill="#3F3D56" points="315.513,259.289 402.387,255.039 438.83,285.458 432.387,291.275 374.678,289.976 "/>
<rect x="97.363" y="193.836" fill="#3F3D56" width="56.088" height="16.549"/>
<rect x="97.363" y="228.425" fill="#3F3D56" width="56.088" height="16.549"/>
<rect x="97.363" y="261.375" fill="#3F3D56" width="56.088" height="16.549"/>
</svg>
