<?xml version="1.0" encoding="utf-8"?>
<!-- Generator: Adobe Illustrator 16.0.0, SVG Export Plug-In . SVG Version: 6.00 Build 0)  -->
<!DOCTYPE svg PUBLIC "-//W3C//DTD SVG 1.1//EN" "http://www.w3.org/Graphics/SVG/1.1/DTD/svg11.dtd">
<svg version="1.1" id="Layer_1" xmlns="http://www.w3.org/2000/svg" xmlns:xlink="http://www.w3.org/1999/xlink" x="0px" y="0px"
	 width="831px" height="729.989px" viewBox="0 0 831 729.989" enable-background="new 0 0 831 729.989" xml:space="preserve">
<path fill="#F1F1F1" d="M723.976,703.571v-72.34C723.976,631.231,752.167,682.518,723.976,703.571z"/>
<path fill="#F1F1F1" d="M725.717,703.559l-53.289-48.922C672.428,654.637,729.273,668.553,725.717,703.559z"/>
<path fill="#F1F1F1" d="M106.459,703.571v-72.34C106.459,631.231,78.268,682.518,106.459,703.571z"/>
<path fill="#F1F1F1" d="M104.718,703.559l53.289-48.922C158.007,654.637,101.162,668.553,104.718,703.559z"/>
<path fill="#3F3D56" d="M590.755,167.048h-3.862V61.239C586.893,27.418,559.476,0,525.654,0l0,0h-224.17
	c-33.821,0-61.239,27.417-61.239,61.239l0,0v580.476c0,33.82,27.418,61.238,61.239,61.238l0,0h224.17
	c33.821,0,61.239-27.416,61.239-61.238l0,0V242.365h3.863L590.755,167.048z"/>
<path fill="#FFFFFF" d="M528.125,15.933h-29.262c4.531,11.111-0.802,23.792-11.913,28.324c-2.604,1.063-5.391,1.609-8.204,1.609
	H350.322c-11.999,0-21.727-9.729-21.726-21.729c0-2.813,0.547-5.6,1.609-8.205h-27.33c-25.258,0-45.733,20.476-45.733,45.733V641.29
	c0,25.258,20.476,45.732,45.732,45.732h225.251c25.257,0,45.732-20.475,45.732-45.732l0,0V61.665
	C573.858,36.408,553.382,15.933,528.125,15.933L528.125,15.933z"/>
<path fill="#E5E5E5" d="M522.483,677.071H308.517c-24.585,0-44.586-17.854-44.586-39.797v-28.811
	c0-17.49,15.929-31.719,35.508-31.719h232.122c19.579,0,35.508,14.229,35.508,31.719v28.811
	C567.069,659.217,547.068,677.071,522.483,677.071z"/>
<path fill="#0A95F2" d="M331.009,192.845h-47.728c-1.779-0.002-3.223-1.444-3.225-3.225v-47.728c0.002-1.78,1.445-3.223,3.225-3.225
	h47.728c1.78,0.002,3.223,1.444,3.225,3.225v47.728C334.232,191.4,332.789,192.843,331.009,192.845z"/>
<path fill="#E5E5E5" d="M403.245,192.845h-47.728c-1.78-0.002-3.223-1.444-3.225-3.225v-47.728c0.002-1.78,1.444-3.223,3.225-3.225
	h47.728c1.78,0.002,3.223,1.444,3.225,3.225v47.728C406.468,191.4,405.026,192.843,403.245,192.845z"/>
<path fill="#E5E5E5" d="M475.482,192.845h-47.728c-1.78-0.002-3.223-1.444-3.225-3.225v-47.728c0.002-1.78,1.444-3.223,3.225-3.225
	h47.728c1.78,0.002,3.223,1.444,3.225,3.225v47.728C478.704,191.4,477.262,192.843,475.482,192.845z"/>
<path fill="#E5E5E5" d="M547.718,192.845H499.99c-1.78-0.002-3.223-1.444-3.225-3.225v-47.728c0.002-1.78,1.444-3.223,3.225-3.225
	h47.728c1.78,0.002,3.223,1.444,3.225,3.225v47.728C550.941,191.4,549.498,192.843,547.718,192.845z"/>
<path fill="#E5E5E5" d="M330.838,281.205h-47.727c-1.78-0.002-3.224-1.444-3.226-3.225v-47.728c0.003-1.78,1.445-3.223,3.226-3.225
	h47.727c1.78,0.002,3.223,1.444,3.226,3.225v47.728C334.061,279.761,332.618,281.203,330.838,281.205z"/>
<path fill="#E5E5E5" d="M403.074,281.205h-47.728c-1.78-0.002-3.223-1.444-3.225-3.225v-47.728c0.002-1.78,1.444-3.223,3.225-3.225
	h47.728c1.78,0.002,3.223,1.444,3.225,3.225v47.728C406.297,279.761,404.855,281.203,403.074,281.205z"/>
<path fill="#0A95F2" d="M475.311,281.205h-47.728c-1.78-0.002-3.223-1.444-3.225-3.225v-47.728c0.002-1.78,1.444-3.223,3.225-3.225
	h47.728c1.78,0.002,3.223,1.444,3.225,3.225v47.728C478.533,279.761,477.091,281.203,475.311,281.205z"/>
<path fill="#0A95F2" d="M547.547,281.205H499.82c-1.78-0.002-3.223-1.444-3.225-3.225v-47.728c0.002-1.78,1.444-3.223,3.225-3.225
	h47.728c1.78,0.002,3.223,1.444,3.225,3.225v47.728C550.77,279.761,549.327,281.203,547.547,281.205z"/>
<path fill="#E5E5E5" d="M330.668,369.566h-47.728c-1.78-0.003-3.223-1.444-3.225-3.226v-47.727c0.002-1.78,1.444-3.223,3.225-3.225
	h47.728c1.779,0.002,3.223,1.444,3.225,3.225v47.727C333.891,368.122,332.448,369.563,330.668,369.566z"/>
<path fill="#E5E5E5" d="M402.904,369.566h-47.728c-1.779-0.003-3.223-1.444-3.225-3.226v-47.727c0.002-1.78,1.445-3.223,3.225-3.225
	h47.728c1.78,0.002,3.224,1.444,3.226,3.225v47.727C406.127,368.122,404.684,369.563,402.904,369.566z"/>
<path fill="#E5E5E5" d="M475.14,369.566h-47.728c-1.779-0.003-3.223-1.444-3.225-3.226v-47.727c0.002-1.78,1.445-3.223,3.225-3.225
	h47.728c1.78,0.002,3.224,1.444,3.226,3.225v47.727C478.364,368.122,476.92,369.563,475.14,369.566z"/>
<path fill="#E5E5E5" d="M547.376,369.566h-47.728c-1.78-0.003-3.223-1.444-3.225-3.226v-47.727c0.002-1.78,1.444-3.223,3.225-3.225
	h47.728c1.78,0.002,3.223,1.444,3.225,3.225v47.727C550.599,368.122,549.156,369.563,547.376,369.566z"/>
<path fill="#E5E5E5" d="M330.497,457.926H282.77c-1.78-0.002-3.223-1.445-3.225-3.225v-47.729c0.002-1.779,1.444-3.223,3.225-3.225
	h47.728c1.78,0.002,3.223,1.445,3.225,3.225v47.729C333.72,456.481,332.278,457.924,330.497,457.926z"/>
<path fill="#E5E5E5" d="M402.734,457.926h-47.728c-1.78-0.002-3.223-1.445-3.226-3.225v-47.729c0.003-1.779,1.445-3.223,3.226-3.225
	h47.728c1.779,0.002,3.223,1.445,3.225,3.225v47.729C405.956,456.481,404.514,457.924,402.734,457.926z"/>
<path fill="#E5E5E5" d="M474.969,457.926h-47.727c-1.78-0.002-3.224-1.445-3.226-3.225v-47.729c0.002-1.779,1.445-3.223,3.226-3.225
	h47.727c1.78,0.002,3.224,1.445,3.226,3.225v47.729C478.193,456.481,476.749,457.924,474.969,457.926z"/>
<path fill="#E5E5E5" d="M547.205,457.926h-47.728c-1.779-0.002-3.223-1.445-3.225-3.225v-47.729
	c0.002-1.779,1.445-3.223,3.225-3.225h47.728c1.78,0.002,3.224,1.445,3.226,3.225v47.729
	C550.429,456.481,548.986,457.924,547.205,457.926z"/>
<path fill="#FFFFFF" d="M331.009,655.286h-47.728c-1.779-0.002-3.223-1.445-3.225-3.225v-47.729
	c0.002-1.779,1.445-3.223,3.225-3.225h47.728c1.78,0.002,3.223,1.445,3.225,3.225v47.729
	C334.232,653.84,332.789,655.284,331.009,655.286z"/>
<path fill="#FFFFFF" d="M403.245,655.286h-47.728c-1.78-0.002-3.223-1.445-3.225-3.225v-47.729c0.002-1.779,1.444-3.223,3.225-3.225
	h47.728c1.78,0.002,3.223,1.445,3.225,3.225v47.729C406.468,653.84,405.026,655.284,403.245,655.286z"/>
<path fill="#FFFFFF" d="M475.482,655.286h-47.728c-1.78-0.002-3.223-1.445-3.225-3.225v-47.729c0.002-1.779,1.444-3.223,3.225-3.225
	h47.728c1.78,0.002,3.223,1.445,3.225,3.225v47.729C478.704,653.84,477.262,655.284,475.482,655.286z"/>
<path fill="#FFFFFF" d="M547.718,655.286H499.99c-1.78-0.002-3.223-1.445-3.225-3.225v-47.729c0.002-1.779,1.444-3.223,3.225-3.225
	h47.728c1.78,0.002,3.223,1.445,3.225,3.225v47.729C550.941,653.84,549.498,655.284,547.718,655.286z"/>
<circle fill="#E5E5E5" cx="392.111" cy="556.221" r="6.449"/>
<circle fill="#E5E5E5" cx="415.329" cy="556.221" r="6.449"/>
<circle fill="#E5E5E5" cx="438.548" cy="556.221" r="6.449"/>
<path fill="#CBCBCB" d="M830,704H1c-0.553,0-1-0.447-1-1s0.447-1,1-1h829c0.552,0,1,0.447,1,1S830.552,704,830,704z"/>
<path fill="#E5E5E5" d="M331.497,529.926H283.77c-1.78-0.002-3.223-1.445-3.225-3.225v-47.729c0.002-1.779,1.444-3.223,3.225-3.225
	h47.728c1.78,0.002,3.223,1.445,3.225,3.225v47.729C334.72,528.481,333.278,529.924,331.497,529.926z"/>
<path fill="#E5E5E5" d="M403.734,529.926h-47.728c-1.78-0.002-3.223-1.445-3.226-3.225v-47.729c0.003-1.779,1.445-3.223,3.226-3.225
	h47.728c1.779,0.002,3.223,1.445,3.225,3.225v47.729C406.956,528.481,405.514,529.924,403.734,529.926z"/>
<path fill="#E5E5E5" d="M475.969,529.926h-47.727c-1.78-0.002-3.224-1.445-3.226-3.225v-47.729c0.002-1.779,1.445-3.223,3.226-3.225
	h47.727c1.78,0.002,3.224,1.445,3.226,3.225v47.729C479.193,528.481,477.749,529.924,475.969,529.926z"/>
<path fill="#E5E5E5" d="M548.205,529.926h-47.728c-1.779-0.002-3.223-1.445-3.225-3.225v-47.729
	c0.002-1.779,1.445-3.223,3.225-3.225h47.728c1.78,0.002,3.224,1.445,3.226,3.225v47.729
	C551.429,528.481,549.986,529.924,548.205,529.926z"/>
</svg>
