<?xml version="1.0" encoding="utf-8"?>
<!-- Generator: Adobe Illustrator 16.0.0, SVG Export Plug-In . SVG Version: 6.00 Build 0)  -->
<!DOCTYPE svg PUBLIC "-//W3C//DTD SVG 1.1//EN" "http://www.w3.org/Graphics/SVG/1.1/DTD/svg11.dtd">
<svg version="1.1" id="Layer_1" xmlns="http://www.w3.org/2000/svg" xmlns:xlink="http://www.w3.org/1999/xlink" x="0px" y="0px"
	 width="825.201px" height="591.418px" viewBox="0 0 825.201 591.418" enable-background="new 0 0 825.201 591.418"
	 xml:space="preserve">
<path fill="#F2F2F2" d="M612.226,377.106c2.121,0.197,3.998-1.362,4.195-3.483c0.105-1.131-0.295-2.253-1.094-3.063
	c-0.078-0.391-0.135-0.671-0.215-1.063c0.039-0.081,0.078-0.164,0.117-0.245c2.473-5.158,8.658-7.336,13.814-4.863
	c2.451,1.176,4.34,3.266,5.264,5.822c2.771,7.661,6.395,15.375,7.002,23.368c0.268,3.534-0.08,7.086-1.027,10.501
	c8.074-15.649,12.691-32.851,13.533-50.439c0.207-4.415,0.168-8.836-0.117-13.246c-0.24-3.614-0.637-7.211-1.191-10.79
	c-3.033-19.417-10.629-37.837-22.164-53.749c-5.779-3.51-10.342-8.709-13.074-14.892c-0.99-2.224-1.654-4.58-1.971-6.993
	c0.664,0.119,1.342,0.205,2.008,0.281c0.209,0.021,0.428,0.042,0.635,0.063l0.078,0.006c2.102,0.194,3.963-1.355,4.154-3.456
	c0.084-0.932-0.176-1.862-0.73-2.615c-0.271-0.369-0.543-0.737-0.816-1.105c-0.414-0.569-0.836-1.127-1.252-1.695
	c-0.047-0.055-0.092-0.112-0.133-0.172c-0.477-0.648-0.951-1.285-1.426-1.933c0.986-1.386,2.279-2.526,3.779-3.329
	c5.191-2.726,12.07-0.35,15.508,4.391c3.449,4.742,3.84,11.188,2.303,16.842c-1.477,4.801-3.76,9.317-6.752,13.353
	c0.258,0.362,0.527,0.717,0.785,1.08c4.711,6.677,8.756,13.797,12.076,21.264c-0.51-8.215,0.938-16.432,4.223-23.976
	c3.301-7.021,9.143-12.791,14.33-18.752c6.229-7.161,18.143-3.354,18.74,6.118c0.006,0.092,0.012,0.184,0.018,0.275
	c-0.746,0.376-1.48,0.779-2.197,1.207c-2.475,1.492-3.271,4.707-1.779,7.181c0.756,1.255,2.004,2.135,3.441,2.427l0.107,0.021
	c-0.381,2.61-0.961,5.188-1.732,7.71c-4.496,14.228-14.723,25.937-28.215,32.307c-0.438,0.199-0.865,0.399-1.301,0.588
	c3.191,10.595,4.994,21.56,5.359,32.618c0.193,6.523-0.141,13.053-0.996,19.522l0.043-0.229c1.738-7.158,5.896-13.495,11.768-17.943
	c8.715-6.506,20.693-8.492,30.01-13.613c2.871-1.661,6.543-0.68,8.201,2.191c0.711,1.229,0.965,2.671,0.711,4.07
	c-0.014,0.079-0.031,0.161-0.047,0.239c-1.375,0.488-2.721,1.06-4.025,1.714c-0.746,0.377-1.479,0.779-2.197,1.207
	c-2.475,1.492-3.27,4.707-1.779,7.182c0.758,1.254,2.008,2.135,3.443,2.426l0.105,0.021c0.076,0.015,0.143,0.028,0.219,0.044
	c-2.563,5.4-6.037,10.319-10.27,14.541c-10.557,10.32-24.898,15.833-39.648,15.24h-0.012c-2.381,8.513-5.641,16.757-9.725,24.597
	l-30.588-1.423c-0.094-0.344-0.178-0.701-0.26-1.045c2.822,0.31,5.674,0.273,8.486-0.11c-2.139-2.892-4.277-5.804-6.418-8.693
	c-0.049-0.055-0.094-0.112-0.135-0.171c-1.086-1.479-2.182-2.946-3.266-4.426v-0.004c0.141-4.37,0.846-8.705,2.094-12.898H612.226z"
	/>
<path fill="#F2F2F2" d="M215.428,266.099c-2.104,0.328-4.076-1.113-4.404-3.218c-0.174-1.124,0.155-2.266,0.903-3.124
	c0.054-0.395,0.094-0.678,0.149-1.072c-0.044-0.08-0.087-0.16-0.132-0.24c-2.786-4.994-9.094-6.785-14.088-3.999
	c-2.374,1.324-4.132,3.528-4.894,6.136c-2.292,7.817-5.432,15.742-5.545,23.756c-0.049,3.543,0.518,7.067,1.673,10.417
	c-9.025-15.12-14.695-32.003-16.624-49.507c-0.479-4.392-0.713-8.809-0.7-13.228c0.015-3.623,0.188-7.237,0.521-10.843
	c1.828-19.567,8.271-38.422,18.801-55.016c5.55-3.861,9.783-9.331,12.128-15.671c0.852-2.28,1.369-4.672,1.535-7.1
	c-0.656,0.16-1.327,0.288-1.987,0.404c-0.207,0.033-0.423,0.067-0.63,0.101l-0.077,0.013c-2.086,0.321-4.038-1.108-4.36-3.194
	c-0.143-0.924,0.06-1.87,0.567-2.656c0.25-0.384,0.499-0.769,0.748-1.154c0.377-0.593,0.766-1.177,1.144-1.77
	c0.045-0.057,0.086-0.117,0.124-0.18c0.435-0.676,0.869-1.342,1.304-2.019c-1.071-1.322-2.433-2.379-3.979-3.089
	c-5.35-2.398-12.068,0.396-15.207,5.342c-3.15,4.946-3.143,11.404-1.258,16.951c1.771,4.702,4.328,9.067,7.564,12.911
	c-0.235,0.379-0.482,0.749-0.716,1.127c-4.289,6.955-7.886,14.313-10.74,21.968c0.001-8.229-1.951-16.341-5.697-23.668
	c-3.728-6.804-9.916-12.202-15.461-17.831c-6.66-6.761-18.315-2.227-18.327,7.264c0,0.092,0,0.184,0,0.276
	c0.769,0.33,1.525,0.686,2.268,1.069c2.562,1.335,3.556,4.496,2.22,7.057c-0.678,1.3-1.871,2.256-3.287,2.635l-0.104,0.028
	c0.542,2.581,1.279,5.118,2.205,7.587c5.368,13.923,16.296,24.978,30.157,30.503c0.449,0.172,0.888,0.345,1.335,0.506
	c-2.532,10.771-3.653,21.827-3.334,32.888c0.209,6.522,0.946,13.018,2.202,19.423l-0.059-0.226
	c-2.178-7.036-6.718-13.106-12.853-17.183c-9.102-5.955-21.181-7.198-30.793-11.734c-2.968-1.479-6.572-0.272-8.051,2.695
	c-0.634,1.271-0.796,2.727-0.459,4.106c0.021,0.079,0.042,0.158,0.063,0.236c1.404,0.401,2.781,0.889,4.123,1.462
	c0.769,0.33,1.524,0.687,2.267,1.069c2.562,1.335,3.555,4.496,2.22,7.057c-0.678,1.3-1.871,2.255-3.287,2.635l-0.104,0.027
	c-0.075,0.019-0.14,0.038-0.215,0.056c2.893,5.232,6.664,9.928,11.148,13.881c11.174,9.647,25.829,14.263,40.515,12.76l0.011-0.001
	c2.902,8.35,6.665,16.377,11.227,23.951l30.442-3.313c0.073-0.35,0.133-0.708,0.195-1.059c-2.8,0.483-5.646,0.623-8.479,0.415
	c1.958-3.018,3.913-6.055,5.87-9.074c0.044-0.057,0.086-0.117,0.124-0.178c0.992-1.543,1.995-3.077,2.987-4.621v-0.001
	C217.906,274.49,216.934,270.206,215.428,266.099L215.428,266.099z"/>
<path fill="#3F3D56" d="M612.095,322.37c0.023,111.563-90.398,202.019-201.959,202.042c-0.027,0-0.054,0-0.082,0
	c-111.583,0-202.041-90.459-202.041-202.042c-0.02-21.704,3.46-43.27,10.303-63.867c27.557-82.493,104.764-138.132,191.737-138.173
	c74.527-0.026,143.015,40.993,178.167,106.711c4.277,7.958,8.008,16.196,11.168,24.661c0.438,1.177,0.863,2.357,1.279,3.546v0.011
	c1.852,5.23,3.482,10.558,4.895,15.984C609.913,287.936,612.109,305.118,612.095,322.37z"/>
<path fill="#FFFFFF" d="M387.949,186.056c-18.4-9.95-40.361-10.848-59.512-2.435c-8.32,3.621-17.083,10.117-19.858,21.848
	c11.228-6.625,25.759,3.843,28.648,20.636l-0.674,0.186c-1.526,11.632,1.88,24.295,8.474,31.508
	c0.866-7.492,5.792-12.591,10.637-15.776c4.845-3.186,10.205-5.499,13.903-10.973c4.384-6.491,5.498-15.976,7.239-24.629
	S381.853,188.467,387.949,186.056z"/>
<path fill="#FFFFFF" d="M325.107,285.038c-3.109,4.669-7.262,7.599-10.989,11.247c-3.715,3.659-7.25,8.598-7.992,14.939
	c-0.471,4.063,0.258,8.193,0.157,12.303c-0.101,4.108-1.47,8.732-4.266,9.753c-4.411,1.595-7.778-6.6-12.313-7.172
	c-3.604-0.448-6.847,5.219-5.803,10.137c1.044,4.915,5.949,7.093,8.768,3.883c2.547,4.276,0.751,12.033-3.076,13.346
	c-0.404,2.694-0.809,5.377-1.202,8.07c-9.675-6.768-19.451-13.649-27.679-23.561c-9.151-10.93-14.826-24.343-16.298-38.521
	c-1.066-11.393,0.516-24.424-4.715-33.192c-4.187-7.014-11.37-8.563-17.836-8.125c-1.177,0.078-2.368,0.212-3.547,0.358
	c3.814-11.452,8.656-22.535,14.469-33.112c1.315-0.565,2.538-1.325,3.626-2.256c6.016-5.107,8.687-15.445,13.57-22.595
	c0.315-0.461,0.64-0.909,0.976-1.347c4.995-6.522,11.685-9.878,18.15-12.998c14.311-6.948,29.039-13.985,44.147-13.021l-4.3,0.416
	c-5.018,14.053-10.038,28.106-15.064,42.16c-0.762,2.155-1.534,4.314-2.312,6.477c-2.852,7.991-5.792,16.5-5.354,25.446
	c0.257,5.297,2.099,10.954,5.601,12.773c3.267,1.683,6.835-0.381,9.989-2.424c1.336-0.854,2.661-1.706,3.997-2.571
	c4.792-3.086,10.102-6.251,15.164-4.186c4.636,1.886,8.06,8.182,8.71,14.973C330.284,272.838,328.674,279.45,325.107,285.038z"/>
<path fill="#FFFFFF" d="M353.613,380.982c-13.998-8.619-27.996-17.236-41.994-25.856l0.238-0.612
	c-8.703,3.315-12.316,18.786-10.878,31.438s6.316,23.962,8.779,36.289c3.322,16.87,2.068,34.321-3.631,50.543
	c18.407-20.653,34.696-43.1,48.625-67.004c1.946-3.013,3.428-6.3,4.398-9.753c0.889-3.672,0.752-8.088-1.029-11.033
	C356.975,383.301,355.425,381.922,353.613,380.982z"/>
<path fill="#FFFFFF" d="M298.367,224.181c-1.486,3.342-2.059,7.798-0.709,11.256c1.377,3.532,4.29,5.127,6.971,6.457l7.734,3.833
	c2.573,1.276,5.347,2.564,7.97,1.514c3.163-1.266,5.357-6.225,4.79-10.83c-0.604-4.901-3.692-8.271-6.549-11.142
	c-3.997-4.016-7.995-8.033-11.992-12.05l-2.253,2.76C301.892,218.356,299.877,221.129,298.367,224.181z"/>
<path fill="#FFFFFF" d="M570.632,276.563c3.479,0.819,6.959,1.639,10.439,2.458c-0.605,11.752-6.432,22.629-14.244,26.568
	c-3.256,1.639-6.881,2.245-9.574,5.31c-2.436,2.783-3.672,7.116-4.805,11.258c-1.986,7.229-3.973,14.458-5.961,21.685
	c-2.133,7.791-4.871,16.445-10.416,19.251c-4.76,2.414-10.203-0.538-13.861-5.488c-3.66-4.951-5.893-11.606-8.061-18.094
	c0.137,7.07-3.154,14.008-7.811,16.466c-4.67,2.459-10.35,0.235-13.469-5.253c-2.246-3.94-3.178-9.137-5.379-13.132
	c-2.199-3.997-6.813-6.286-9.215-2.537c-1.582,2.491-1.381,6.307-2.166,9.474c-1.223,4.916-4.928,8.003-8.598,8.271
	c-3.66,0.27-7.229-1.841-10.293-4.703c-6.32-5.927-10.977-15.332-12.785-25.782c-0.797-4.657-1.021-9.731,0.359-14.098
	s4.715-7.733,8.025-6.903c2.178-4.602-2.121-10.709-5.994-10.169c-3.883,0.538-6.926,4.703-10.113,7.902
	c-3.176,3.198-7.621,5.521-10.82,2.345c0.021,2.952-2.379,4.905-4.457,4.659c-2.064-0.235-3.904-1.896-5.801-3.077
	c-7.331-4.566-16.636-1.535-21.844,7.105c3.255-13.851,8.025-29.745,18.026-32.999c4.086-1.336,8.542-0.235,12.403-2.549
	c6.836-4.096,8.217-19.576,2.313-25.962c0.752,6.038,0.605,13.088-2.582,17.22c-3.188,4.129-9.877,1.436-9.474-4.67
	c-0.921,4.209-5.5,4.849-7.609,1.616c-2.122-3.233-1.943-8.519-0.438-12.381c1.503-3.862,4.062-6.634,6.543-9.293
	c5.332-5.714,10.743-11.494,16.915-15.086c6.186-3.592,13.322-4.804,19.52-1.235c3.268,1.886,6.141,5.029,9.473,6.69
	c3.336,1.671,7.566,1.459,9.777-2.447c2.48-4.355,1.314-10.821,2.234-16.264c1.65-9.62,11.268-14.121,16.6-7.768
	c-3.984-1.021-8.104,3.693-8.598,9.406c-0.504,5.713,2.381,11.482,6.24,13.211c6.488,2.873,12.842-4.355,17.748-11.046
	c5.117-7.003,10.242-14.004,15.377-21c0.82-1.191,1.74-2.31,2.75-3.345c3.336-3.252,8.623-3.36,12.09-0.247
	c5.184,4.231,7.619,12.908,11.875,18.879c6.172,8.677,15.41,10.787,24.008,12.471c6.41,1.246,12.822,2.5,19.24,3.76
	c4.277,7.958,8.008,16.196,11.168,24.661C588.523,256.314,578.501,264.946,570.632,276.563z"/>
<path fill="#FFFFFF" d="M591.353,411.617c-4.809,9.765-10.402,19.121-16.725,27.983c-4.041-1.729-8.385,1.356-12.168,4.253
	c-3.951,3.03-8.699,5.984-12.752,3.222c-4.141-2.828-5.477-10.742-4.162-17.016c1.313-6.265,4.59-11.248,7.766-15.984
	c3.369-5.028,6.971-10.248,11.652-12.201c4.691-1.954,10.719,0.808,12.088,7.476l3.324-0.111c-1.865-2.561-0.889-7.858,1.615-8.789
	c2.885-1.09,5.389,2.872,7.094,6.374C589.849,408.407,590.622,410,591.353,411.617z"/>
<path fill="#FFFFFF" d="M464.105,364.206c-7.141,0.448-12.799-8.343-16.557-16.992c-3.758-8.648-7.189-18.538-13.633-22.94
	c-3.682-2.516-7.879-2.86-11.873-4.08c-3.994-1.219-8.173-3.74-10.083-8.878l-4.531-1.829c-5.982,3.364-12.044,6.788-17.199,12.263
	c-5.781,6.143-9.383,14.016-10.249,22.406c-0.865,9.067,2.331,19.178,8.301,22.585c4.718,2.691,10.212,0.995,14.991,3.459
	c5.971,3.078,9.516,12.021,10.857,20.852c1.342,8.829,1.001,18.005,1.963,26.936c0.959,8.93,3.604,18.221,9.08,22.798
	c6.854,5.726,16.908,0.967,19.98-9.457c1.508-5.114,1.457-10.884,2.584-16.19c1.986-9.348,7.348-16.283,11.598-23.951
	C463.587,383.519,466.931,373.104,464.105,364.206z"/>
<path fill="#FFFFFF" d="M393.537,272.354c0.667,0.613,1.289,1.272,1.86,1.974c1.207,2.082,1.163,4.66-0.115,6.699
	c1.74-0.1,3.358-0.921,4.463-2.268c1.302-1.485,2.45-3.1,3.421-4.82c0.729-1.187,1.503-2.793,1.009-4.204
	c-0.337-0.962-1.136-1.374-1.694-2.099c-0.887-1.147-1.107-2.971-1.566-4.544c-0.991-3.403-3.364-5.906-5.94-6.262l0.357,0.068
	c-1.077,0.369-1.828,2.078-1.59,3.616c0.217,1.4,1.117,2.564,1.027,3.993c-0.129,2.054-2.181,3.018-2.308,5.073
	C392.441,270.608,392.828,271.606,393.537,272.354z"/>
<path fill="#E6E6E6" d="M381.302,237.445c0.01-0.004,0.021-0.004,0.031-0.006c0.22-0.2,0.424-0.417,0.61-0.649L381.302,237.445z"/>
<path fill="#FFFFFF" d="M383.444,247.087c1.58-1.017,2.461-3.824,1.939-6.174c-0.519-2.336-2.355-3.906-4.048-3.475
	c-0.999,1.012-2.449,1.438-3.837,1.13c-1.046-0.271-2.196-0.965-3.105-0.175c-0.519,0.587-0.883,1.299-1.057,2.063
	c-0.336,1.032-0.672,2.063-1.009,3.095c-0.159,0.37-0.201,0.78-0.119,1.174c0.13,0.321,0.42,0.55,0.762,0.606
	c2.017,0.594,4.033,1.188,6.05,1.783C380.489,247.549,382.076,247.967,383.444,247.087z"/>
<path fill="#FFFFFF" d="M535.695,380.208c-0.932-1.526-1.865-3.052-2.797-4.579c-0.916-1.767-2.168-3.339-3.686-4.628
	c-1.383-1.157-3.441-0.976-4.6,0.407c-0.018,0.02-0.033,0.039-0.049,0.06l0.113,0.871c2.125,2.666,4.373,5.628,4.912,9.584
	c0.213,1.561,0.139,3.175,0.326,4.742c0.186,1.565,0.715,3.189,1.725,3.866c1.469,0.98,3.193-0.466,4.238-2.229
	c0.934-1.45,1.352-3.171,1.189-4.887C536.835,382.263,536.366,381.171,535.695,380.208z"/>
<path fill="#E6E6E6" d="M577.185,321.917c0.27-1.768,0.539-3.536,0.809-5.304c0.438-1.941,0.492-3.951,0.162-5.914
	c-0.313-1.777-2.006-2.963-3.783-2.651c-0.023,0.004-0.049,0.009-0.074,0.013l-0.477,0.74c-0.09,3.408-0.277,7.123-2.412,10.497
	c-0.844,1.329-1.939,2.518-2.805,3.836c-0.867,1.318-1.508,2.902-1.168,4.07c0.49,1.695,2.742,1.699,4.676,1.022
	c1.648-0.507,3.078-1.555,4.057-2.973C576.734,324.223,577.079,323.087,577.185,321.917z"/>
<path fill="#FFFFFF" d="M550.32,382.195c0.455-1.311-0.203-2.813-0.342-4.261c-0.066-1.871,0.43-3.719,1.424-5.304
	c0.986-1.496,1.736-3.137,2.219-4.862c0.203-0.788,0.164-1.617-0.107-2.383c-0.309-0.691-1.057-1.009-1.484-0.46l0.916,0.591
	c-1.238-0.22-2.51-0.159-3.723,0.18c-1.402,0.538-2.455,1.725-2.822,3.182c-0.15,1.119-0.398,2.224-0.738,3.301
	c-0.549,1.124-1.607,1.499-2.273,2.485c-0.922,1.779-0.887,3.902,0.094,5.648c0.836,1.406,2.164,2.451,3.729,2.934
	C548.331,383.647,549.806,383.668,550.32,382.195z"/>
<path fill="#FFFFFF" d="M576.363,390.053c0.404,1.053,0.947,2.049,1.613,2.961c1.248,1.256,2.941,0.485,4.453,0.179
	c2.799-0.441,5.611,0.688,7.326,2.938c-1.189-5.937-5.189-10.925-10.723-13.38c-3.566-1.452-7.322-1.594-11.029-1.725l-0.643,0.165
	C568.993,385.943,574.118,385.836,576.363,390.053z"/>
<path fill="#E6E6E6" d="M466.058,399.77l0.01,0.021c0.063-0.119,0.125-0.238,0.188-0.359L466.058,399.77z"/>
<path fill="#FFFFFF" d="M462.107,407.417c-0.859,1.565-1.602,3.193-2.215,4.87c-0.813,2.716-1.352,5.507-1.607,8.331
	c-0.201,1.605-0.262,3.656,0.744,4.438c0.598,0.397,1.396,0.288,1.867-0.253c0.559-0.591,1.016-1.271,1.354-2.011
	c1.977-3.405,3.512-7.05,4.566-10.843c0.965-3.996,0.953-8.699-0.748-12.159C464.747,402.333,463.429,404.875,462.107,407.417z"/>
<path fill="#E6E6E6" d="M423.993,203.675c1.281,1.254,3.188,1.625,4.848,0.946c1.682-0.735,3.225-1.755,4.561-3.013
	c1.107-0.819,2.047-1.843,2.766-3.016c0.801-1.417,1.004-3.094,0.566-4.661c-0.625-1.826-2.211-2.439-3.609-2.854
	c-2.238-0.664-4.477-1.328-6.715-1.992l1.619-1.459c-1.666-0.894-3.51,0.765-4.551,2.82c-0.668,1.342-1.133,2.774-1.381,4.252
	C421.538,197.924,422.085,201.764,423.993,203.675z"/>
<path fill="#E6E6E6" d="M463.515,190.407c1.309,1.443,3.514,1.623,5.039,0.41c1.279-0.96,2.09-2.421,2.23-4.015
	c0.158-1.761-0.713-3.718-1.957-3.87l0.285-1.649c-2.395-0.433-5.342-0.519-6.627,2.39
	C461.605,185.941,461.997,188.506,463.515,190.407z"/>
<path fill="#0A95F2" d="M423.64,242.837c-19.096-2.154-36.323,11.58-38.477,30.676c-2.154,19.096,7.907,60.563,26.249,77.729
	c8.637-32.89,38.898-52.396,42.904-69.928C458.593,262.579,442.736,244.991,423.64,242.837z"/>
<circle id="a2705e7e-530b-43fb-b0c6-4087ca2c8018" fill="#FFFFFF" cx="417.296" cy="273.941" r="11.348"/>
<circle id="bb575e01-1284-49d3-8651-037e5b7ffa75" fill="#0A95F2" cx="410.055" cy="358.268" r="11.383"/>
<path fill="#0A95F2" d="M295.389,170.543c-21.96-2.477-41.77,13.317-44.248,35.277c-2.477,21.96,9.093,69.646,30.186,89.387
	c9.932-37.821,44.734-60.254,49.339-80.416C335.587,193.246,317.35,173.021,295.389,170.543z"/>
<circle id="b2d5ab8a-e71c-4a1a-aadf-98f8ab95825b" fill="#FFFFFF" cx="288.095" cy="206.312" r="13.05"/>
<circle id="bac33ac8-32b5-423c-9bc5-6c03ceb8d8dc" fill="#0A95F2" cx="274.375" cy="305.476" r="8.547"/>
<path opacity="0.2" fill="#231F20" enable-background="new    " d="M298.893,196.963c6.178,3.712,8.177,11.729,4.464,17.907
	c-3.711,6.178-11.73,8.177-17.907,4.464c7.034,1.565,14.005-2.869,15.57-9.903c1.221-5.484-1.207-11.134-6.025-14.023
	C296.37,195.713,297.687,196.237,298.893,196.963z"/>
<path opacity="0.2" fill="#231F20" enable-background="new    " d="M330.718,214.833c-4.605,20.164-39.408,42.596-49.339,80.417
	c-1.983-1.875-3.826-3.893-5.513-6.04c11.161-35.549,43.797-57.151,48.246-76.632c3.982-17.436-7.203-34.006-23.254-41.006
	C320.286,176.456,335.227,195.089,330.718,214.833z"/>
<path fill="#0A95F2" d="M620.345,162.703c-15.822-6.28-33.738,1.455-40.02,17.276l0,0c-6.281,15.822-7.322,53.607,4.365,72.544
	c15.029-26.105,45.432-35.744,52.932-49.8C645.634,187.705,636.167,168.984,620.345,162.703z"/>
<circle id="f50692ea-d13f-4759-b5e2-05248e17533e" fill="#FFFFFF" cx="607.693" cy="187.816" r="10.052"/>
<circle id="aec6a1c4-a00c-42b6-a49d-0158b63ca54a" fill="#0A95F2" cx="577.448" cy="258.75" r="6.584"/>
<path opacity="0.2" fill="#231F20" enable-background="new    " d="M617.609,183.05c3.838,4.011,3.699,10.374-0.313,14.212
	c-4.008,3.834-10.361,3.699-14.201-0.302c4.912,2.586,10.99,0.699,13.574-4.213c2.016-3.83,1.354-8.519-1.645-11.641
	C615.988,181.61,616.859,182.266,617.609,183.05z"/>
<path opacity="0.2" fill="#231F20" enable-background="new    " d="M637.652,202.766c-7.5,14.056-37.902,23.695-52.932,49.798
	c-1.096-1.792-2.057-3.667-2.875-5.602c15.482-24.169,44.105-33.628,51.354-47.208c6.484-12.155,1.518-26.733-8.996-35.181
	C637.656,172.131,644.995,189.001,637.652,202.766z"/>
<path fill="#0A95F2" d="M665.9,427.282c-10.322,0-21.641-0.389-33.943-1.17c-63.656-4.041-146.105-18.096-232.164-39.57
	c-86.059-21.474-165.445-47.807-223.534-74.143c-28.297-12.829-50.015-24.974-64.55-36.097
	c-15.388-11.775-22.119-22.037-20.007-30.504c4.116-16.493,40.56-20.102,70.409-20.224l0.01,2.399
	c-40.99,0.168-65.171,6.705-68.092,18.406c-3.719,14.903,26.614,38.169,83.22,63.834c57.962,26.279,137.203,52.561,223.125,74.002
	c85.923,21.44,168.22,35.469,231.733,39.503c62.027,3.938,99.736-2.349,103.455-17.253c3.086-12.374-17.271-30.602-57.318-51.327
	l1.102-2.131c29.1,15.062,62.879,36.66,58.541,54.04c-2.111,8.466-12.875,14.363-31.992,17.526
	C694.999,426.377,681.615,427.282,665.9,427.282z"/>
<g>
	<ellipse fill="#0A95F2" cx="693.825" cy="381.719" rx="89.748" ry="6.929"/>
	<path fill="#3F3D56" d="M648.013,318.747l-4.416-7.357l41.213-35.327c30.467-14.665,67.191-10.433,105.973,0v10.304l-38.268,41.212
		l-44.158,8.83L648.013,318.747z"/>
	<path fill="#CCCCCC" d="M809.025,296.792c7.316-8.139,8.334-15.881,0-23.027H795.15v7.26l-4.367-4.963l-35.324,35.327l-5.889,5.886
		l-7.357,29.438l13.246,32.379h67.703V312.86L809.025,296.792z"/>
	<path fill="#F2F2F2" d="M643.597,311.387h111.859v67.704H643.597C630.066,364.452,637.095,337.764,643.597,311.387z"/>
	<rect x="716.454" y="332.73" fill="#3F3D56" width="23.549" height="20.605"/>
	<rect x="686.281" y="331.995" fill="#CCCCCC" width="20.607" height="47.099"/>
	<polygon fill="#3F3D56" points="662.732,339.352 662.732,331.995 653.902,331.995 653.902,339.352 661.995,339.352 	"/>
	<polygon fill="#3F3D56" points="661.995,345.239 653.902,345.239 653.902,352.599 662.732,352.599 662.732,345.239 	"/>
	<rect x="668.618" y="331.995" fill="#3F3D56" width="8.832" height="7.357"/>
	<rect x="668.618" y="345.241" fill="#3F3D56" width="8.832" height="7.358"/>
	<polygon fill="#3F3D56" points="787.101,340.089 787.101,332.73 778.271,332.73 778.271,340.089 786.366,340.089 	"/>
	<polygon fill="#3F3D56" points="786.366,345.977 778.271,345.977 778.271,353.335 787.101,353.335 787.101,345.977 	"/>
	<rect x="792.99" y="332.73" fill="#3F3D56" width="8.832" height="7.357"/>
	<rect x="792.99" y="345.977" fill="#3F3D56" width="8.832" height="7.358"/>
	<path fill="#3F3D56" d="M712.267,230.323h12.686c26.055,0,47.176,21.12,47.176,47.174l0,0h-59.861V230.323z"/>
	<rect x="631.859" y="294.044" fill="#3F3D56" width="2.133" height="84.314"/>
	<path fill="#0A95F2" d="M653.693,304.79c1.924,29.418-20.607,53.478-20.607,53.478s-20.963-23.806-21.098-53.286
		c-0.137-29.483,20.605-53.479,20.605-53.479C630.572,259.583,652.134,280.984,653.693,304.79z"/>
	<polygon fill="#3F3D56" points="698.095,279.726 790.812,275.189 829.706,307.653 822.829,313.863 761.24,312.477 	"/>
</g>
<g>
	<ellipse fill="#0A95F2" cx="92.749" cy="272.286" rx="89.749" ry="6.929"/>
	<path fill="#3F3D56" d="M46.937,209.313l-4.415-7.358l41.211-35.326c30.467-14.664,67.193-10.433,105.973,0v10.304l-38.269,41.213
		l-44.156,8.83L46.937,209.313z"/>
	<path fill="#CCCCCC" d="M207.948,187.359c7.319-8.14,8.335-15.882,0-23.028h-13.874v7.261l-4.367-4.964l-35.324,35.326
		l-5.888,5.887l-7.358,29.437l13.247,32.379h67.704v-66.231L207.948,187.359z"/>
	<path fill="#F2F2F2" d="M42.522,201.953h111.859v67.705H42.522C28.99,255.018,36.019,228.33,42.522,201.953z"/>
	<rect x="115.378" y="223.296" fill="#3F3D56" width="23.549" height="20.605"/>
	<rect x="85.205" y="222.56" fill="#CCCCCC" width="20.606" height="47.099"/>
	<polygon fill="#3F3D56" points="61.656,229.918 61.656,222.56 52.826,222.56 52.826,229.918 60.92,229.918 	"/>
	<polygon fill="#3F3D56" points="60.92,235.805 52.826,235.805 52.826,243.166 61.656,243.166 61.656,235.805 	"/>
	<rect x="67.544" y="222.56" fill="#3F3D56" width="8.831" height="7.358"/>
	<rect x="67.544" y="235.807" fill="#3F3D56" width="8.831" height="7.358"/>
	<polygon fill="#3F3D56" points="186.026,230.656 186.026,223.296 177.195,223.296 177.195,230.656 185.29,230.656 	"/>
	<polygon fill="#3F3D56" points="185.29,236.542 177.195,236.542 177.195,243.901 186.026,243.901 186.026,236.542 	"/>
	<rect x="191.914" y="223.296" fill="#3F3D56" width="8.831" height="7.358"/>
	<rect x="191.914" y="236.542" fill="#3F3D56" width="8.831" height="7.359"/>
	<path fill="#3F3D56" d="M111.192,120.889h12.685c26.054,0,47.175,21.12,47.175,47.174l0,0h-59.86V120.889z"/>
	<rect x="30.782" y="184.61" fill="#3F3D56" width="2.134" height="84.313"/>
	<path fill="#0A95F2" d="M52.616,195.355c1.924,29.419-20.607,53.478-20.607,53.478s-20.963-23.805-21.098-53.286
		c-0.136-29.482,20.606-53.479,20.606-53.479C29.495,150.149,51.059,171.55,52.616,195.355z"/>
	<polygon fill="#3F3D56" points="97.019,170.292 189.737,165.755 228.63,198.219 221.755,204.429 160.163,203.042 	"/>
</g>
</svg>
