<?xml version="1.0" encoding="utf-8"?>
<!-- Generator: Adobe Illustrator 16.0.0, SVG Export Plug-In . SVG Version: 6.00 Build 0)  -->
<!DOCTYPE svg PUBLIC "-//W3C//DTD SVG 1.1//EN" "http://www.w3.org/Graphics/SVG/1.1/DTD/svg11.dtd">
<svg version="1.1" id="Layer_1" xmlns="http://www.w3.org/2000/svg" xmlns:xlink="http://www.w3.org/1999/xlink" x="0px" y="0px"
	 width="777px" height="407.998px" viewBox="0 0 777 407.998" enable-background="new 0 0 777 407.998" xml:space="preserve">
<path fill="#F2F2F2" d="M775.35,297.399c-4.07,25.87-16.68,50.979-37.49,66.87c-20.48,15.649-46.72,21.21-72.05,25.989
	c-30.38,5.74-60.843,10.987-91.39,15.74c-4.33,0.69-8.664,1.356-13,2H383.5c-0.181-0.24-0.371-0.49-0.551-0.74
	c-0.289-0.42-0.58-0.84-0.859-1.26c-0.16-0.24-0.32-0.49-0.48-0.74h111.6c6.594-0.005,11.939-5.346,11.951-11.939v-148.96
	c0.719-2.26,1.389-4.53,2-6.83c2.846-10.71,4.696-21.66,5.529-32.71c0.6-7.7,0.78-15.4,0.65-23.11
	c-0.37-21.189-3.141-42.38-6.15-63.42c-0.22-1.55-0.449-3.109-0.67-4.66c-2.12-14.619-4.05-30.529,3.32-43.34
	c8.43-14.66,27.14-20.77,43.99-19.27c30.31,2.71,55.84,25.92,69.109,53.31c13.26,27.38,16.23,58.521,17.439,88.92
	c0.641,16.12,0.57,32.96-1.68,49.13c7.601-17.38,15.207-34.76,22.82-52.14c4.061-9.27,8.33-18.84,15.85-25.62
	c15.721-14.189,41.721-11.33,58.51,1.59c16.781,12.931,25.98,33.36,32.101,53.63C775.56,244.908,779.43,271.529,775.35,297.399z"/>
<path fill="#FFFFFF" d="M708.298,156.886c10.992,19.469,16.035,41.792,15.914,64.069c-0.17,22.088-5.056,43.884-14.331,63.93
	c-8.39,18.101-20.077,34.479-34.467,48.299c-14.2,13.788-31.051,24.552-49.531,31.641c-21.444,8.037-44.637,10.24-67.211,6.387
	c-3.136-0.539-6.249-1.192-9.338-1.96c-1.875-0.462-2.675,2.43-0.798,2.893c23.49,5.822,48.125,5.114,71.242-2.049
	c19.253-6.194,37.02-16.301,52.183-29.687c15.352-13.422,28.046-29.605,37.426-47.712c10.263-19.823,16.25-41.58,17.575-63.863
	c1.31-22.612-2.48-45.627-12.26-66.138c-1.185-2.486-2.456-4.927-3.814-7.323c-0.442-0.701-1.369-0.91-2.07-0.468
	C708.151,155.326,707.924,156.192,708.298,156.886L708.298,156.886z"/>
<path fill="#FFFFFF" d="M549.088,50.622c12.188,22.467,21.687,46.292,28.298,70.982c13.235,49.451,15.228,101.238,5.832,151.56
	c-4.689,25.143-12.339,49.641-22.788,72.984c-10.419,23.147-25.42,47.536-51.042,55.641c-2.893,0.91-5.856,1.573-8.86,1.98
	c-1.904,0.262-1.094,3.152,0.798,2.894c26.505-3.639,44.922-25.658,56.472-48.104c11.951-23.226,20.461-48.446,26.121-73.909
	c11.215-50.808,10.812-103.492-1.181-154.122c-5.958-25.222-14.862-49.655-26.529-72.796c-1.466-2.898-2.976-5.773-4.529-8.625
	C550.756,47.411,548.164,48.924,549.088,50.622z"/>
<path fill="#CCCCCC" d="M423.64,46.259h-179.6c-7.59,0.01-13.74,6.16-13.75,13.75v89.989h27.64c4.11-0.011,7.935,2.104,10.11,5.59
	l9.58,15.25l9.16,14.57l1.72,2.74l10.479,16.67l0.12,0.189h138.29v-145C437.38,52.418,431.23,46.269,423.64,46.259z"/>
<path fill="#FFFFFF" d="M352.449,73.769H263.46c-4.913,0-8.896,3.982-8.896,8.895c0,4.913,3.982,8.896,8.896,8.896h88.989
	c4.913,0,8.896-3.982,8.896-8.896C361.345,77.751,357.363,73.769,352.449,73.769z"/>
<path fill="#FFFFFF" d="M401.799,117.448H264.27c-5.362,0-9.71,4.348-9.71,9.71c0,5.363,4.348,9.71,9.71,9.71h137.529
	c5.363,0,9.711-4.347,9.711-9.71C411.51,121.796,407.162,117.448,401.799,117.448z"/>
<path fill="#FFFFFF" d="M410.58,157.019c-1.596-3.408-5.018-5.587-8.781-5.59H264.27c-0.21,0-0.41,0.01-0.62,0.02
	c1.795,0.98,3.307,2.406,4.391,4.14l9.58,15.25h124.179c5.356,0.002,9.699-4.339,9.701-9.694
	C411.5,159.718,411.186,158.309,410.58,157.019z"/>
<path fill="#FFFFFF" d="M411.41,193.809c-0.654-4.809-4.759-8.396-9.611-8.4H286.781l1.72,2.74l10.479,16.67h102.819
	c2.021,0.004,3.991-0.629,5.631-1.81c2.555-1.82,4.07-4.764,4.07-7.9C411.5,194.674,411.47,194.24,411.41,193.809z"/>
<path fill="#0A95F2" d="M521.19,123.759l-14-5.471l-69.8-27.24l-83.511-32.59c-7.077-2.746-15.042,0.751-17.81,7.82l-2.92,7.49
	l-6.95,17.79l-10.1,25.89l-7.58,19.42l-5.68,14.561l-7.58,19.409l-5.69,14.57l-0.159,0.42l-0.91,2.32l10.479,16.67l0.12,0.19
	h194.109c3.609-0.004,7.026,1.629,9.29,4.439l0.82-2.08l10.02-25.66l15.66-40.13C531.752,134.501,528.259,126.531,521.19,123.759z"
	/>
<path fill="#FFFFFF" d="M444.869,123.498l-7.479-2.92l-75.42-29.43c-4.578-1.771-9.728,0.483-11.53,5.05
	c-1.774,4.581,0.487,9.734,5.061,11.53l24.91,9.72l30.81,12.021l26.17,10.22l1.01,0.39c4.582,1.777,9.737-0.496,11.515-5.078
	C451.687,130.432,449.432,125.289,444.869,123.498z"/>
<path fill="#FFFFFF" d="M474.949,182.139l-37.56-14.66l-26.81-10.46l-14.32-5.59l-37.301-14.561l-12.119-4.729
	c-4.687-1.83-9.995,0.223-12.23,4.729c-0.119,0.25-0.24,0.51-0.34,0.78c-1.95,4.992,0.517,10.619,5.508,12.569
	c0.001,0,0.002,0,0.002,0.001l3.1,1.21l49.721,19.409l44.79,17.48l30.5,11.91c1.122,0.438,2.315,0.662,3.52,0.66
	c5.36,0.009,9.714-4.329,9.724-9.689C481.14,187.193,478.684,183.593,474.949,182.139L474.949,182.139z"/>
<path fill="#FFFFFF" d="M437.39,203.948l-2.41-0.939l-23.569-9.2l-21.531-8.4l-37.34-14.57l-18.06-7.05
	c-4.993-1.953-10.624,0.511-12.577,5.504c-1.953,4.992,0.51,10.623,5.503,12.577c0.008,0.003,0.017,0.006,0.024,0.009l9.04,3.53
	l45.1,17.601l4.64,1.81l0.48,0.19h53.41L437.39,203.948z"/>
<path fill="#FFFFFF" d="M346.16,204.819l-4.641-1.81l-19.391-7.57c-4.984-1.953-10.609,0.506-12.563,5.491
	c-0.262,0.67-0.449,1.367-0.557,2.079c-0.097,0.598-0.134,1.204-0.11,1.81c-0.002,0.063,0.001,0.127,0.011,0.19h37.739
	L346.16,204.819z"/>
<path fill="#3F3D56" d="M386.209,204.819l-4.64-1.81h-72.56c-0.097,0.598-0.134,1.204-0.11,1.81h-9.92l0.12,0.19h87.59
	L386.209,204.819z M386.209,204.819H298.98l0.12,0.19h87.59L386.209,204.819z M386.209,204.819H298.98l0.12,0.19h87.59
	L386.209,204.819z M386.69,205.009l-0.48-0.19H298.98l0.12,0.19H386.69z M211.68,405.259c-6.59-0.011-11.93-5.351-11.939-11.94
	v-231.37c0.006-6.594,5.346-11.938,11.939-11.95h18.61v-2h-18.61c-7.696,0.015-13.931,6.254-13.939,13.95v231.37
	c0.006,5.462,3.199,10.417,8.17,12.68h176.18c-0.16-0.239-0.32-0.489-0.48-0.739H211.68z M503.32,207.368
	c-2.625-2.785-6.283-4.362-10.11-4.359h-193l-10.799-17.181l-0.261-0.42l-9.159-14.57l-10.261-16.319
	c-2.556-4.053-7.009-6.513-11.8-6.521h-46.25c-7.696,0.015-13.931,6.254-13.939,13.95v231.37c0.006,5.462,3.199,10.417,8.17,12.68
	c1.81,0.833,3.778,1.264,5.77,1.261h281.529c1.996,0.003,3.968-0.428,5.781-1.261c4.97-2.263,8.163-7.218,8.17-12.68v-176.36
	C507.162,213.387,505.786,209.951,503.32,207.368z M505.16,393.319c-0.012,6.594-5.357,11.935-11.951,11.94H211.68
	c-6.59-0.011-11.93-5.351-11.939-11.94v-231.37c0.006-6.594,5.346-11.938,11.939-11.95h46.25c4.11-0.011,7.935,2.104,10.11,5.59
	l9.58,15.25l9.16,14.57l1.72,2.74l10.479,16.67l0.12,0.189h194.109c6.598,0.006,11.945,5.353,11.951,11.95V393.319z
	 M386.209,204.819H298.98l0.12,0.19h87.59L386.209,204.819z M386.209,204.819H298.98l0.12,0.19h87.59L386.209,204.819z
	 M386.209,204.819H298.98l0.12,0.19h87.59L386.209,204.819z M386.209,204.819l-4.64-1.81h-81.36l-10.799-17.181l-0.91,2.32
	l10.479,16.67l0.12,0.19h87.59L386.209,204.819z"/>
<path fill="#3F3D56" d="M716,406.998c-0.002,0.552-0.449,0.998-1,1H1c-0.553,0-1-0.447-1-1c0-0.552,0.447-1,1-1h714
	C715.551,406,715.998,406.447,716,406.998z"/>
</svg>
