<?xml version="1.0" encoding="utf-8"?>
<!-- Generator: Adobe Illustrator 16.0.0, SVG Export Plug-In . SVG Version: 6.00 Build 0)  -->
<!DOCTYPE svg PUBLIC "-//W3C//DTD SVG 1.1//EN" "http://www.w3.org/Graphics/SVG/1.1/DTD/svg11.dtd">
<svg version="1.1" id="Layer_1" xmlns="http://www.w3.org/2000/svg" xmlns:xlink="http://www.w3.org/1999/xlink" x="0px" y="0px"
	 width="983.101px" height="499px" viewBox="0 160.209 983.101 499" enable-background="new 0 160.209 983.101 499"
	 xml:space="preserve">
<path fill="#F2F2F2" d="M722.718,474.452c2.498,0.232,4.709-1.604,4.941-4.103c0.124-1.332-0.348-2.653-1.288-3.607
	c-0.093-0.46-0.159-0.79-0.254-1.251c0.047-0.096,0.093-0.193,0.139-0.289c2.912-6.075,10.197-8.64,16.271-5.728
	c2.888,1.385,5.111,3.846,6.2,6.857c3.264,9.023,7.531,18.108,8.247,27.523c0.314,4.162-0.095,8.346-1.21,12.368
	c9.51-18.433,14.947-38.692,15.939-59.408c0.243-5.2,0.197-10.407-0.139-15.602c-0.282-4.257-0.75-8.493-1.403-12.709
	c-3.572-22.869-12.519-44.565-26.104-63.306c-6.808-4.135-12.181-10.257-15.399-17.54c-1.166-2.619-1.948-5.395-2.321-8.235
	c0.782,0.14,1.581,0.241,2.365,0.331c0.246,0.023,0.504,0.049,0.747,0.073l0.093,0.007c2.475,0.229,4.667-1.596,4.893-4.07
	c0.099-1.098-0.207-2.193-0.86-3.08c-0.319-0.435-0.64-0.868-0.962-1.302c-0.487-0.671-0.984-1.328-1.475-1.997
	c-0.055-0.064-0.107-0.133-0.156-0.202c-0.561-0.764-1.12-1.514-1.679-2.276c1.161-1.633,2.685-2.977,4.451-3.922
	c6.114-3.21,14.217-0.412,18.265,5.172c4.063,5.586,4.523,13.178,2.713,19.837c-1.739,5.655-4.429,10.974-7.953,15.728
	c0.304,0.427,0.621,0.845,0.925,1.271c5.549,7.863,10.313,16.25,14.224,25.044c-0.601-9.675,1.104-19.353,4.974-28.238
	c3.888-8.269,10.769-15.065,16.878-22.087c7.336-8.434,21.369-3.949,22.073,7.206c0.007,0.108,0.014,0.216,0.021,0.324
	c-0.879,0.443-1.744,0.917-2.588,1.421c-2.915,1.758-3.854,5.545-2.096,8.459c0.89,1.478,2.36,2.515,4.053,2.857l0.127,0.024
	c-0.448,3.074-1.132,6.11-2.041,9.081c-5.295,16.757-17.34,30.549-33.231,38.052c-0.516,0.234-1.019,0.471-1.532,0.692
	c3.759,12.479,5.883,25.393,6.313,38.418c0.228,7.684-0.166,15.374-1.173,22.994l0.05-0.271c2.048-8.431,6.945-15.895,13.86-21.134
	c10.265-7.663,24.373-10.002,35.346-16.034c3.382-1.956,7.707-0.801,9.66,2.581c0.837,1.447,1.136,3.146,0.837,4.794
	c-0.016,0.094-0.037,0.19-0.055,0.282c-1.62,0.575-3.205,1.248-4.741,2.019c-0.879,0.443-1.742,0.918-2.588,1.422
	c-2.915,1.757-3.852,5.544-2.096,8.458c0.893,1.478,2.364,2.515,4.056,2.857l0.124,0.024c0.09,0.017,0.168,0.033,0.258,0.052
	c-3.019,6.36-7.111,12.154-12.096,17.126c-12.435,12.155-29.326,18.648-46.699,17.95h-0.014
	c-2.804,10.026-6.644,19.736-11.453,28.971l-36.027-1.676c-0.11-0.405-0.209-0.826-0.306-1.23c3.324,0.364,6.683,0.321,9.995-0.131
	c-2.519-3.405-5.038-6.835-7.56-10.238c-0.057-0.064-0.11-0.133-0.158-0.202c-1.279-1.741-2.569-3.47-3.847-5.212v-0.005
	c0.166-5.147,0.996-10.253,2.466-15.192H722.718z"/>
<path fill="#F2F2F2" d="M255.365,343.706c-2.479,0.387-4.801-1.311-5.187-3.79c-0.205-1.323,0.183-2.669,1.063-3.68
	c0.063-0.465,0.111-0.799,0.175-1.263c-0.052-0.094-0.103-0.189-0.156-0.283c-3.281-5.881-10.711-7.99-16.593-4.709
	c-2.795,1.559-4.866,4.155-5.764,7.227c-2.699,9.208-6.397,18.542-6.531,27.98c-0.058,4.174,0.609,8.324,1.971,12.27
	c-10.63-17.809-17.308-37.694-19.579-58.311c-0.565-5.173-0.84-10.375-0.824-15.579c0.017-4.267,0.222-8.524,0.614-12.771
	c2.152-23.047,9.742-45.254,22.144-64.799c6.537-4.547,11.523-10.99,14.285-18.458c1.003-2.685,1.612-5.502,1.808-8.362
	c-0.772,0.188-1.563,0.338-2.34,0.476c-0.244,0.039-0.499,0.079-0.742,0.119l-0.09,0.015c-2.457,0.378-4.755-1.305-5.136-3.762
	c-0.168-1.088,0.07-2.202,0.668-3.128c0.294-0.453,0.587-0.906,0.88-1.359c0.444-0.699,0.902-1.386,1.347-2.084
	c0.053-0.067,0.102-0.138,0.146-0.211c0.512-0.796,1.023-1.581,1.535-2.377c-1.261-1.557-2.865-2.802-4.687-3.638
	c-6.301-2.825-14.214,0.467-17.91,6.292c-3.71,5.825-3.702,13.432-1.481,19.966c2.085,5.538,5.098,10.68,8.909,15.206
	c-0.277,0.447-0.567,0.882-0.844,1.327c-5.052,8.192-9.288,16.857-12.649,25.875c0.002-9.693-2.298-19.247-6.709-27.877
	c-4.391-8.013-11.679-14.372-18.21-21.001c-7.844-7.963-21.571-2.623-21.585,8.555c0,0.109,0,0.216,0,0.325
	c0.906,0.388,1.796,0.807,2.67,1.259c3.018,1.573,4.188,5.295,2.615,8.312c-0.799,1.531-2.204,2.657-3.872,3.103l-0.123,0.034
	c0.638,3.04,1.506,6.027,2.597,8.937c6.322,16.398,19.194,29.419,35.519,35.927c0.529,0.202,1.045,0.406,1.573,0.596
	c-2.982,12.687-4.302,25.707-3.927,38.735c0.246,7.683,1.114,15.333,2.593,22.878l-0.069-0.268
	c-2.566-8.287-7.913-15.437-15.139-20.237c-10.72-7.014-24.947-8.478-36.269-13.821c-3.496-1.741-7.741-0.32-9.482,3.174
	c-0.747,1.498-0.938,3.212-0.541,4.837c0.025,0.093,0.049,0.187,0.074,0.278c1.654,0.473,3.275,1.047,4.856,1.723
	c0.905,0.389,1.795,0.809,2.67,1.258c3.018,1.572,4.188,5.295,2.614,8.313c-0.799,1.531-2.203,2.656-3.872,3.104l-0.123,0.032
	c-0.088,0.021-0.164,0.044-0.253,0.065c3.407,6.163,7.849,11.693,13.13,16.35c13.161,11.362,30.422,16.799,47.719,15.029
	l0.013-0.001c3.418,9.835,7.85,19.289,13.223,28.209l35.855-3.901c0.086-0.412,0.157-0.834,0.229-1.247
	c-3.297,0.569-6.65,0.734-9.987,0.488c2.306-3.554,4.609-7.132,6.914-10.687c0.052-0.067,0.102-0.138,0.146-0.21
	c1.168-1.818,2.349-3.624,3.518-5.442v-0.001c-0.484-5.129-1.629-10.175-3.401-15.011L255.365,343.706z"/>
<path fill="#3F3D56" d="M722.564,409.983c0.027,131.399-106.473,237.94-237.87,237.968c-0.032,0-0.063,0-0.096,0
	c-131.424,0-237.967-106.544-237.967-237.968c-0.023-25.563,4.076-50.964,12.136-75.223
	c32.457-97.162,123.392-162.695,225.831-162.743c87.778-0.031,168.445,48.282,209.848,125.686
	c5.038,9.372,9.432,19.076,13.154,29.046c0.515,1.387,1.017,2.776,1.507,4.178v0.013c2.181,6.16,4.102,12.436,5.765,18.826
	C719.994,369.426,722.58,389.664,722.564,409.983z"/>
<path fill="#FFFFFF" d="M458.562,249.43c-21.672-11.719-47.538-12.777-70.094-2.867c-9.8,4.265-20.12,11.916-23.389,25.733
	c13.224-7.804,30.339,4.526,33.742,24.305l-0.793,0.219c-1.798,13.7,2.214,28.615,9.981,37.11c1.02-8.824,6.821-14.83,12.528-18.581
	c5.707-3.752,12.02-6.477,16.375-12.924c5.164-7.645,6.476-18.816,8.526-29.009C447.49,263.225,451.382,252.27,458.562,249.43z"/>
<path fill="#FFFFFF" d="M384.546,366.012c-3.662,5.5-8.554,8.951-12.943,13.247c-4.376,4.31-8.54,10.127-9.413,17.596
	c-0.555,4.786,0.304,9.65,0.185,14.491c-0.119,4.839-1.731,10.285-5.024,11.486c-5.195,1.879-9.161-7.772-14.502-8.447
	c-4.245-0.527-8.064,6.147-6.835,11.939c1.229,5.789,7.007,8.354,10.327,4.573c3,5.037,0.885,14.173-3.623,15.719
	c-0.476,3.174-0.953,6.333-1.416,9.506c-11.396-7.972-22.91-16.077-32.6-27.75c-10.779-12.873-17.463-28.672-19.197-45.371
	c-1.256-13.419,0.608-28.768-5.553-39.095c-4.931-8.26-13.391-10.085-21.007-9.569c-1.386,0.093-2.789,0.251-4.177,0.423
	c4.492-13.489,10.195-26.542,17.042-39c1.549-0.666,2.989-1.561,4.271-2.658c7.086-6.015,10.232-18.19,15.983-26.612
	c0.371-0.543,0.753-1.071,1.149-1.587c5.883-7.682,13.763-11.634,21.377-15.309c16.855-8.183,34.202-16.472,51.997-15.336
	l-5.064,0.489c-5.91,16.552-11.823,33.104-17.743,49.656c-0.898,2.538-1.807,5.081-2.723,7.628
	c-3.358,9.412-6.821,19.434-6.305,29.971c0.303,6.238,2.472,12.902,6.596,15.045c3.848,1.982,8.05-0.449,11.766-2.855
	c1.573-1.006,3.134-2.01,4.707-3.029c5.645-3.635,11.898-7.363,17.861-4.93c5.46,2.221,9.492,9.637,10.258,17.635
	C390.643,351.644,388.746,359.431,384.546,366.012z"/>
<path fill="#FFFFFF" d="M418.119,479.017c-16.486-10.151-32.974-20.301-49.461-30.454l0.28-0.721
	c-10.25,3.904-14.506,22.126-12.812,37.027c1.694,14.9,7.439,28.223,10.34,42.741c3.913,19.87,2.436,40.425-4.277,59.53
	c21.681-24.325,40.866-50.763,57.271-78.918c2.292-3.548,4.038-7.42,5.181-11.487c1.047-4.324,0.886-9.525-1.212-12.995
	C422.079,481.749,420.254,480.125,418.119,479.017z"/>
<path fill="#FFFFFF" d="M353.051,294.334c-1.75,3.937-2.425,9.186-0.835,13.258c1.622,4.16,5.053,6.039,8.21,7.604l9.11,4.515
	c3.031,1.504,6.298,3.021,9.387,1.784c3.726-1.491,6.31-7.332,5.642-12.755c-0.712-5.773-4.349-9.742-7.714-13.123
	c-4.708-4.73-9.417-9.462-14.125-14.193l-2.654,3.251C357.202,287.475,354.829,290.741,353.051,294.334z"/>
<path fill="#FFFFFF" d="M673.728,356.031c4.098,0.965,8.196,1.931,12.296,2.896c-0.713,13.842-7.575,26.652-16.776,31.292
	c-3.835,1.931-8.104,2.645-11.277,6.254c-2.868,3.278-4.324,8.382-5.659,13.26c-2.339,8.515-4.679,17.029-7.021,25.54
	c-2.512,9.177-5.737,19.37-12.268,22.675c-5.606,2.843-12.018-0.634-16.326-6.465c-4.312-5.831-6.94-13.67-9.494-21.311
	c0.161,8.327-3.715,16.498-9.199,19.394c-5.5,2.896-12.19,0.277-15.864-6.188c-2.646-4.641-3.742-10.761-6.335-15.467
	c-2.59-4.707-8.023-7.403-10.854-2.988c-1.863,2.935-1.626,7.429-2.551,11.158c-1.44,5.791-5.804,9.427-10.127,9.743
	c-4.311,0.317-8.514-2.169-12.123-5.54c-7.444-6.98-12.929-18.059-15.059-30.366c-0.938-5.485-1.203-11.462,0.424-16.604
	c1.626-5.143,5.553-9.108,9.452-8.131c2.564-5.42-2.498-12.613-7.061-11.978c-4.572,0.634-8.157,5.539-11.911,9.308
	c-3.74,3.767-8.977,6.503-12.744,2.762c0.025,3.478-2.802,5.777-5.25,5.487c-2.432-0.276-4.599-2.233-6.832-3.624
	c-8.634-5.378-19.594-1.808-25.728,8.369c3.833-16.313,9.452-35.034,21.231-38.866c4.813-1.574,10.061-0.277,14.608-3.003
	c8.052-4.824,9.679-23.057,2.725-30.578c0.885,7.111,0.713,15.415-3.042,20.281c-3.754,4.863-11.633,1.691-11.158-5.5
	c-1.084,4.957-6.478,5.711-8.962,1.903c-2.5-3.808-2.288-10.034-0.516-14.583c1.771-4.548,4.784-7.813,7.707-10.945
	c6.279-6.73,12.653-13.538,19.922-17.769c7.286-4.23,15.691-5.658,22.991-1.454c3.849,2.221,7.232,5.923,11.156,7.88
	c3.93,1.968,8.912,1.718,11.517-2.883c2.921-5.129,1.548-12.745,2.632-19.156c1.943-11.331,13.271-16.632,19.551-9.149
	c-4.692-1.203-9.544,4.35-10.126,11.079c-0.594,6.729,2.804,13.524,7.35,15.561c7.642,3.384,15.125-5.129,20.903-13.01
	c6.027-8.249,12.063-16.494,18.111-24.735c0.967-1.403,2.05-2.72,3.239-3.939c3.929-3.83,10.156-3.957,14.239-0.29
	c6.105,4.983,8.975,15.203,13.987,22.236c7.269,10.219,18.149,12.705,28.276,14.688c7.55,1.468,15.103,2.943,22.661,4.429
	c5.038,9.372,9.432,19.076,13.154,29.046C694.8,332.182,682.996,342.348,673.728,356.031z"/>
<path fill="#FFFFFF" d="M698.133,515.099c-5.663,11.501-12.252,22.521-19.698,32.959c-4.76-2.037-9.876,1.598-14.332,5.01
	c-4.653,3.569-10.245,7.048-15.019,3.794c-4.877-3.331-6.451-12.652-4.902-20.041c1.546-7.379,5.405-13.248,9.146-18.826
	c3.968-5.923,8.21-12.07,13.724-14.371c5.526-2.302,12.625,0.951,14.237,8.805l3.916-0.131c-2.197-3.016-1.047-9.256,1.902-10.352
	c3.397-1.284,6.347,3.383,8.354,7.507C696.362,511.319,697.273,513.195,698.133,515.099z"/>
<path fill="#FFFFFF" d="M548.259,459.257c-8.41,0.528-15.075-9.826-19.501-20.014c-4.426-10.186-8.468-21.834-16.057-27.02
	c-4.337-2.963-9.28-3.368-13.984-4.806c-4.704-1.435-9.626-4.405-11.875-10.456l-5.337-2.154
	c-7.046,3.962-14.186,7.995-20.258,14.443c-6.809,7.234-11.052,16.508-12.07,26.391c-1.019,10.68,2.745,22.587,9.776,26.601
	c5.558,3.17,12.028,1.172,17.656,4.074c7.033,3.625,11.208,14.157,12.788,24.559c1.581,10.399,1.179,21.207,2.313,31.726
	c1.129,10.518,4.244,21.46,10.694,26.852c8.072,6.743,19.915,1.139,23.533-11.139c1.776-6.023,1.716-12.819,3.044-19.069
	c2.339-11.01,8.653-19.179,13.659-28.21C547.649,482.005,551.587,469.739,548.259,459.257z"/>
<path fill="#FFFFFF" d="M465.143,351.073c0.786,0.722,1.518,1.498,2.191,2.325c1.422,2.451,1.37,5.488-0.136,7.89
	c2.05-0.118,3.956-1.085,5.258-2.672c1.533-1.749,2.886-3.65,4.029-5.677c0.858-1.398,1.771-3.29,1.188-4.951
	c-0.397-1.134-1.339-1.618-1.996-2.472c-1.045-1.352-1.304-3.499-1.844-5.352c-1.168-4.01-3.963-6.957-6.997-7.377l0.421,0.08
	c-1.268,0.436-2.153,2.448-1.873,4.26c0.256,1.648,1.315,3.02,1.21,4.702c-0.151,2.419-2.569,3.555-2.719,5.975
	C463.853,349.018,464.308,350.193,465.143,351.073z"/>
<path fill="#E6E6E6" d="M450.733,309.958c0.012-0.005,0.024-0.005,0.037-0.008c0.259-0.235,0.499-0.49,0.718-0.765L450.733,309.958z
	"/>
<path fill="#FFFFFF" d="M453.255,321.315c1.86-1.198,2.898-4.505,2.283-7.272c-0.611-2.752-2.773-4.601-4.768-4.093
	c-1.177,1.192-2.885,1.695-4.521,1.331c-1.232-0.319-2.586-1.136-3.656-0.206c-0.611,0.692-1.04,1.53-1.245,2.431
	c-0.396,1.216-0.792,2.431-1.188,3.646c-0.188,0.436-0.237,0.918-0.14,1.383c0.153,0.378,0.494,0.648,0.897,0.715
	c2.375,0.699,4.751,1.398,7.126,2.1C449.775,321.858,451.645,322.35,453.255,321.315z"/>
<path fill="#FFFFFF" d="M632.578,478.106c-1.098-1.798-2.197-3.594-3.294-5.394c-1.079-2.08-2.554-3.932-4.341-5.45
	c-1.629-1.363-4.054-1.149-5.418,0.479c-0.021,0.022-0.039,0.046-0.058,0.07l0.134,1.025c2.503,3.141,5.15,6.629,5.785,11.288
	c0.251,1.839,0.164,3.74,0.385,5.586c0.218,1.844,0.842,3.757,2.031,4.554c1.729,1.154,3.761-0.549,4.991-2.626
	c1.1-1.708,1.592-3.734,1.401-5.756C633.922,480.526,633.369,479.241,632.578,478.106z"/>
<path fill="#E6E6E6" d="M681.447,409.45c0.317-2.081,0.635-4.164,0.952-6.246c0.515-2.287,0.579-4.654,0.19-6.966
	c-0.368-2.094-2.362-3.49-4.456-3.123c-0.027,0.005-0.057,0.011-0.087,0.015l-0.562,0.872c-0.105,4.015-0.326,8.39-2.841,12.364
	c-0.994,1.565-2.284,2.965-3.304,4.518c-1.021,1.553-1.775,3.419-1.375,4.794c0.577,1.997,3.229,2.002,5.507,1.204
	c1.941-0.597,3.625-1.831,4.778-3.501C680.914,412.166,681.322,410.829,681.447,409.45z"/>
<path fill="#FFFFFF" d="M649.804,480.446c0.536-1.544-0.239-3.313-0.402-5.019c-0.078-2.204,0.506-4.38,1.677-6.247
	c1.162-1.762,2.045-3.694,2.613-5.727c0.239-0.928,0.193-1.904-0.127-2.807c-0.363-0.814-1.244-1.188-1.748-0.542l1.079,0.696
	c-1.459-0.259-2.956-0.188-4.385,0.212c-1.651,0.634-2.892,2.031-3.324,3.747c-0.177,1.318-0.469,2.619-0.869,3.888
	c-0.646,1.324-1.894,1.766-2.678,2.928c-1.086,2.096-1.045,4.596,0.11,6.652c0.984,1.656,2.549,2.887,4.392,3.455
	C647.462,482.156,649.198,482.181,649.804,480.446z"/>
<path fill="#FFFFFF" d="M680.478,489.702c0.476,1.239,1.115,2.413,1.9,3.487c1.47,1.479,3.464,0.571,5.244,0.21
	c3.297-0.52,6.609,0.811,8.629,3.461c-1.4-6.991-6.112-12.867-12.629-15.759c-4.2-1.71-8.624-1.877-12.99-2.031l-0.757,0.194
	C671.798,484.86,677.834,484.735,680.478,489.702z"/>
<path fill="#E6E6E6" d="M550.559,501.146l0.012,0.024c0.074-0.141,0.147-0.281,0.221-0.424L550.559,501.146z"/>
<path fill="#FFFFFF" d="M545.906,510.152c-1.013,1.844-1.887,3.762-2.608,5.736c-0.957,3.199-1.592,6.486-1.894,9.813
	c-0.237,1.891-0.309,4.307,0.876,5.228c0.704,0.469,1.646,0.34,2.199-0.298c0.658-0.695,1.196-1.497,1.595-2.368
	c2.328-4.011,4.136-8.304,5.378-12.771c1.137-4.707,1.123-10.246-0.881-14.321C549.016,504.165,547.463,507.158,545.906,510.152z"/>
<path fill="#E6E6E6" d="M501.015,270.182c1.509,1.477,3.755,1.915,5.71,1.115c1.98-0.866,3.798-2.067,5.371-3.548
	c1.305-0.965,2.411-2.17,3.258-3.553c0.943-1.669,1.183-3.644,0.667-5.49c-0.736-2.151-2.604-2.873-4.251-3.361
	c-2.637-0.782-5.272-1.563-7.909-2.346l1.907-1.719c-1.962-1.053-4.134,0.901-5.36,3.321c-0.786,1.581-1.334,3.268-1.626,5.009
	C498.123,263.409,498.768,267.931,501.015,270.182z"/>
<path fill="#E6E6E6" d="M547.564,254.556c1.542,1.7,4.139,1.912,5.936,0.482c1.507-1.131,2.461-2.852,2.627-4.729
	c0.187-2.074-0.84-4.379-2.305-4.558l0.336-1.942c-2.82-0.509-6.292-0.611-7.806,2.815
	C545.315,249.295,545.777,252.317,547.564,254.556z"/>
<path fill="#0A95F2" d="M500.599,316.309c-22.492-2.538-42.782,13.639-45.319,36.13c-2.537,22.492,9.313,71.332,30.916,91.55
	c10.173-38.738,45.815-61.712,50.533-82.362C541.767,339.561,523.09,318.845,500.599,316.309z"/>
<circle id="a2705e7e-530b-43fb-b0c6-4087ca2c8018" fill="#FFFFFF" cx="493.127" cy="352.942" r="13.366"/>
<circle id="bb575e01-1284-49d3-8651-037e5b7ffa75" fill="#0A95F2" cx="484.599" cy="452.265" r="13.407"/>
<path fill="#0A95F2" d="M349.543,231.159c-25.865-2.917-49.197,15.685-52.115,41.549c-2.917,25.865,10.709,82.031,35.553,105.281
	c11.697-44.546,52.688-70.968,58.112-94.715C396.889,257.898,375.409,234.077,349.543,231.159z"/>
<circle id="b2d5ab8a-e71c-4a1a-aadf-98f8ab95825b" fill="#FFFFFF" cx="340.952" cy="273.289" r="15.37"/>
<circle id="bac33ac8-32b5-423c-9bc5-6c03ceb8d8dc" fill="#0A95F2" cx="324.792" cy="390.084" r="10.067"/>
<path opacity="0.2" fill="#231F20" enable-background="new    " d="M353.67,262.277c7.276,4.372,9.631,13.815,5.258,21.091
	c-4.371,7.276-13.815,9.631-21.091,5.258c8.285,1.843,16.496-3.379,18.338-11.664c1.438-6.46-1.421-13.114-7.097-16.517
	C350.698,260.805,352.249,261.422,353.67,262.277z"/>
<path opacity="0.2" fill="#231F20" enable-background="new    " d="M391.154,283.324c-5.424,23.749-46.415,50.169-58.112,94.716
	c-2.336-2.209-4.506-4.586-6.493-7.114c13.145-41.87,51.585-67.313,56.825-90.258c4.69-20.536-8.484-40.053-27.389-48.298
	C378.867,238.123,396.465,260.07,391.154,283.324z"/>
<path fill="#0A95F2" d="M732.281,221.925c-18.636-7.397-39.737,1.713-47.136,20.348l0,0c-7.397,18.636-8.624,63.139,5.142,85.444
	c17.702-30.746,53.511-42.1,62.344-58.655C762.067,251.373,750.916,229.323,732.281,221.925z"/>
<circle id="f50692ea-d13f-4759-b5e2-05248e17533e" fill="#FFFFFF" cx="717.378" cy="251.504" r="11.84"/>
<path id="aec6a1c4-a00c-42b6-a49d-0158b63ca54a" fill="#0A95F2" d="M681.757,327.295c4.28,0,7.752,3.472,7.752,7.756
	c0,4.282-3.472,7.755-7.752,7.755c-4.284,0-7.755-3.473-7.755-7.755C674.002,330.767,677.473,327.295,681.757,327.295z"/>
<path opacity="0.2" fill="#231F20" enable-background="new    " d="M729.058,245.89c4.521,4.724,4.357,12.218-0.368,16.739
	c-4.721,4.516-12.203,4.357-16.727-0.355c5.786,3.046,12.944,0.824,15.988-4.962c2.374-4.511,1.594-10.034-1.938-13.71
	C727.149,244.194,728.174,244.967,729.058,245.89z"/>
<path opacity="0.2" fill="#231F20" enable-background="new    " d="M752.664,269.111c-8.833,16.555-44.642,27.909-62.343,58.653
	c-1.291-2.111-2.423-4.318-3.387-6.598c18.235-28.466,51.948-39.607,60.485-55.603c7.637-14.316,1.787-31.486-10.596-41.436
	C752.669,233.03,761.315,252.9,752.664,269.111z"/>
<path fill="#0A95F2" stroke="#0A95F2" stroke-width="3" stroke-miterlimit="10" d="M785.936,533.549
	c-12.158,0-25.488-0.457-39.979-1.378c-74.975-4.759-172.085-21.313-273.445-46.606c-101.361-25.292-194.864-56.307-263.282-87.326
	c-33.328-15.11-58.909-29.414-76.028-42.515c-18.124-13.87-26.052-25.956-23.564-35.929c4.848-19.426,47.772-23.676,82.929-23.82
	l0.012,2.826c-48.279,0.197-76.76,7.897-80.2,21.68c-4.38,17.553,31.346,44.956,98.018,75.184
	c68.268,30.952,161.599,61.907,262.799,87.161c101.201,25.253,198.132,41.775,272.939,46.527
	c73.057,4.639,117.471-2.767,121.851-20.321c3.635-14.574-20.343-36.043-67.51-60.454l1.297-2.51
	c34.274,17.74,74.06,43.18,68.95,63.649c-2.486,9.972-15.164,16.917-37.681,20.643C820.209,532.485,804.445,533.549,785.936,533.549
	z"/>
<g>
	<path fill="#0A95F2" d="M818.827,471.725c58.377,0,105.706,3.652,105.706,8.16s-47.329,8.161-105.706,8.161
		c-58.383,0-105.709-3.653-105.709-8.161S760.445,471.725,818.827,471.725z"/>
	<path fill="#3F3D56" d="M764.868,405.715l-5.201-8.666l48.541-41.607c35.885-17.272,79.139-12.288,124.816,0v12.136l-45.072,48.54
		l-52.01,10.4L764.868,405.715z"/>
	<path fill="#CCCCCC" d="M954.51,379.858c8.618-9.587,9.816-18.705,0-27.122h-16.342v8.552l-5.144-5.846l-41.605,41.607
		l-6.936,6.933l-8.666,34.672l15.602,38.137h79.741v-78.009L954.51,379.858z"/>
	<path fill="#F2F2F2" d="M759.667,397.047h131.75v79.743h-131.75C743.73,459.547,752.009,428.115,759.667,397.047z"/>
	<rect x="845.48" y="422.185" fill="#3F3D56" width="27.736" height="24.27"/>
	<rect x="809.941" y="421.319" fill="#CCCCCC" width="24.271" height="55.474"/>
	<polygon fill="#3F3D56" points="782.204,429.985 782.204,421.319 771.804,421.319 771.804,429.985 781.337,429.985 	"/>
	<polygon fill="#3F3D56" points="781.337,436.918 771.804,436.918 771.804,445.587 782.204,445.587 782.204,436.918 	"/>
	<rect x="789.138" y="421.319" fill="#3F3D56" width="10.402" height="8.666"/>
	<rect x="789.138" y="436.92" fill="#3F3D56" width="10.402" height="8.667"/>
	<polygon fill="#3F3D56" points="928.688,430.853 928.688,422.185 918.288,422.185 918.288,430.853 927.823,430.853 	"/>
	<polygon fill="#3F3D56" points="927.823,437.788 918.288,437.788 918.288,446.455 928.688,446.455 928.688,437.788 	"/>
	<rect x="935.624" y="422.185" fill="#3F3D56" width="10.402" height="8.666"/>
	<rect x="935.624" y="437.788" fill="#3F3D56" width="10.402" height="8.667"/>
	<path fill="#3F3D56" d="M840.547,301.569h14.941c30.688,0,55.564,24.875,55.564,55.563l0,0h-70.506V301.569z"/>
	<rect x="745.842" y="376.621" fill="#3F3D56" width="2.512" height="99.306"/>
	<path fill="#0A95F2" d="M771.558,389.277c2.267,34.648-24.271,62.986-24.271,62.986s-24.69-28.038-24.849-62.761
		c-0.161-34.727,24.269-62.989,24.269-62.989C744.325,336.032,769.722,361.239,771.558,389.277z"/>
	<polygon fill="#3F3D56" points="823.856,359.756 933.059,354.414 978.869,392.649 970.77,399.963 898.229,398.332 	"/>
</g>
<g>
	<ellipse fill="#0A95F2" cx="110.87" cy="350.993" rx="105.707" ry="8.161"/>
	<path fill="#3F3D56" d="M56.913,276.823l-5.2-8.667l48.54-41.608c35.884-17.271,79.141-12.288,124.816,0v12.136l-45.073,48.541
		l-52.007,10.4L56.913,276.823z"/>
	<path fill="#CCCCCC" d="M246.553,250.966c8.621-9.587,9.817-18.706,0-27.123h-16.341v8.552l-5.144-5.847l-41.605,41.608
		l-6.936,6.934l-8.667,34.671l15.602,38.136h79.742V269.89L246.553,250.966z"/>
	<path fill="#F2F2F2" d="M51.713,268.154h131.749v79.743H51.713C35.775,330.655,44.053,299.221,51.713,268.154z"/>
	<rect x="137.524" y="293.292" fill="#3F3D56" width="27.737" height="24.269"/>
	<rect x="101.986" y="292.426" fill="#CCCCCC" width="24.27" height="55.474"/>
	<polygon fill="#3F3D56" points="74.249,301.092 74.249,292.426 63.849,292.426 63.849,301.092 73.382,301.092 	"/>
	<polygon fill="#3F3D56" points="73.382,308.026 63.849,308.026 63.849,316.695 74.249,316.695 74.249,308.026 	"/>
	<rect x="81.183" y="292.426" fill="#3F3D56" width="10.401" height="8.666"/>
	<rect x="81.183" y="308.028" fill="#3F3D56" width="10.401" height="8.667"/>
	<polygon fill="#3F3D56" points="220.733,301.961 220.733,293.292 210.332,293.292 210.332,301.961 219.867,301.961 	"/>
	<polygon fill="#3F3D56" points="219.867,308.894 210.332,308.894 210.332,317.561 220.733,317.561 220.733,308.894 	"/>
	<rect x="227.668" y="293.292" fill="#3F3D56" width="10.401" height="8.667"/>
	<rect x="227.668" y="308.894" fill="#3F3D56" width="10.401" height="8.667"/>
	<path fill="#3F3D56" d="M132.594,172.676h14.94c30.687,0,55.563,24.875,55.563,55.562l0,0h-70.503V172.676z"/>
	<rect x="37.885" y="247.728" fill="#3F3D56" width="2.514" height="99.305"/>
	<path fill="#0A95F2" d="M63.602,260.383c2.266,34.65-24.271,62.986-24.271,62.986s-24.69-28.037-24.85-62.761
		c-0.16-34.725,24.271-62.989,24.271-62.989C36.37,207.139,61.768,232.346,63.602,260.383z"/>
	<polygon fill="#3F3D56" points="115.9,230.863 225.104,225.52 270.913,263.757 262.815,271.071 190.272,269.438 	"/>
</g>
</svg>
