<?xml version="1.0" encoding="utf-8"?>
<!-- Generator: Adobe Illustrator 16.0.0, SVG Export Plug-In . SVG Version: 6.00 Build 0)  -->
<!DOCTYPE svg PUBLIC "-//W3C//DTD SVG 1.1//EN" "http://www.w3.org/Graphics/SVG/1.1/DTD/svg11.dtd">
<svg version="1.1" id="Layer_1" xmlns="http://www.w3.org/2000/svg" xmlns:xlink="http://www.w3.org/1999/xlink" x="0px" y="0px"
	 width="997.176px" height="465.46px" viewBox="0 0 997.176 465.46" enable-background="new 0 0 997.176 465.46"
	 xml:space="preserve">
<path fill="#F2F2F2" d="M908.534,464.564H506.935c-10.924,0-19.812-9.832-19.812-21.916V143.997
	c-0.094-4.646,2.437-8.949,6.543-11.124l151.76-91.871c16.861-8.37,36.664-8.39,53.543-0.054l222.793,91.916
	c4.128,2.167,6.676,6.481,6.582,11.143v298.642C928.344,454.732,919.458,464.564,908.534,464.564z"/>
<path fill="#0A95F2" d="M849.234,464.24H504.371c-9.419,0-17.083-6.939-17.083-15.471V240.011c0.091-3.561,2.348-6.703,5.692-7.927
	l160.575-64.233c14.756-5.837,31.178-5.846,45.939-0.023l161.119,64.259c3.35,1.221,5.612,4.366,5.703,7.93v208.752
	C866.317,457.3,858.653,464.24,849.234,464.24z"/>
<ellipse fill="#F2F2F2" cx="319.81" cy="298.347" rx="64.001" ry="80.11"/>
<polygon fill="#CCCCCC" points="319.986,282.238 320.162,282.238 323.327,463.691 316.646,463.691 "/>
<path fill="#CCCCCC" d="M330.903,402.365L330.903,402.365c0.406,0.773,0.109,1.73-0.663,2.137l-9.18,4.834l-1.475-2.801l9.18-4.833
	C329.539,401.294,330.496,401.591,330.903,402.365z"/>
<ellipse fill="#F2F2F2" cx="135.81" cy="298.347" rx="64.001" ry="80.11"/>
<path fill="#CCCCCC" d="M146.903,405.365L146.903,405.365c-0.408-0.773-1.365-1.07-2.138-0.663l-6.408,3.374l-2.195-125.838h-0.176
	l-3.34,181.453h6.681l-0.908-52.071l7.821-4.118C147.012,407.095,147.309,406.138,146.903,405.365z"/>
<path fill="#0A95F2" d="M227.588,113.729c44.788,0,81.191,84.392,81.191,140.453c0,56.062-36.308,101.508-81.096,101.508
	s-81.096-45.446-81.096-101.508C146.588,198.121,182.8,113.729,227.588,113.729z"/>
<path fill="#3F3D56" d="M241.738,389.786c-0.516-0.979-1.728-1.356-2.708-0.841l0,0l-8.12,4.275l-2.78-159.449h-0.223l-4.233,229.92
	h8.466l-1.15-65.98l9.909-5.217C241.878,391.978,242.254,390.765,241.738,389.786L241.738,389.786z"/>
<path fill="#FFFFFF" d="M596.281,320.779v-21.592c0-5.863-4.754-10.617-10.618-10.617h-54.483c-5.864,0-10.618,4.754-10.618,10.617
	v21.592H596.281z"/>
<path fill="#FFFFFF" d="M520.561,324.169v33.457c0,5.863,4.754,10.617,10.618,10.617h54.483c5.864,0,10.618-4.754,10.618-10.617
	v-33.457H520.561z"/>
<path fill="#3F3D56" d="M853.201,261.515l-163.575-59.963c-9.942-3.645-20.854-3.645-30.797,0l-163.576,59.963
	c-11.829,4.336-24.935-1.738-29.271-13.568c-0.922-2.515-1.394-5.172-1.394-7.852l0,0c0-9.571,5.975-18.125,14.962-21.419
	l179.279-65.72c9.942-3.644,20.854-3.644,30.797,0l179.279,65.72c8.986,3.294,14.961,11.848,14.961,21.419l0,0
	c0,12.6-10.214,22.813-22.813,22.813C858.374,262.909,855.717,262.437,853.201,261.515z"/>
<path fill="#3F3D56" d="M700.639,465.24h-43.719c-9.66-0.012-17.488-7.84-17.5-17.5V341.863c0.012-9.66,7.84-17.488,17.5-17.5
	h43.719c9.66,0.012,17.489,7.84,17.5,17.5V447.74C718.129,457.4,710.3,465.228,700.639,465.24z M656.921,327.363
	c-8.004,0.01-14.49,6.496-14.5,14.5V447.74c0.01,8.004,6.496,14.49,14.5,14.5h43.719c8.005-0.01,14.491-6.496,14.5-14.5V341.863
	c-0.009-8.004-6.495-14.49-14.5-14.5H656.921z"/>
<path fill="#FFFFFF" d="M704.88,99.182c-1.557-17.403-16.927-30.249-34.33-28.692c-15.246,1.364-27.328,13.447-28.692,28.692H704.88
	z"/>
<path fill="#FFFFFF" d="M641.739,102.572c0.308,17.468,14.718,31.38,32.187,31.072c17.035-0.299,30.772-14.037,31.072-31.072
	H641.739z"/>
<path fill="#CCCCCC" d="M699.927,137.541H646.81c-5.27,0-9.541-4.271-9.541-9.541s4.271-9.541,9.541-9.541h53.116
	c5.27,0,9.541,4.271,9.541,9.541S705.196,137.541,699.927,137.541z"/>
<path fill="#CCCCCC" d="M521.127,357.443c-4.717,0-8.541,3.823-8.541,8.541c0,4.717,3.824,8.541,8.541,8.541h74.589
	c4.717,0,8.541-3.824,8.541-8.541c0-4.718-3.824-8.541-8.541-8.541l0,0H521.127z"/>
<path fill="#FFFFFF" d="M752.803,324.169v33.457c0,5.863,4.754,10.617,10.618,10.617h54.483c5.863,0,10.617-4.754,10.617-10.617
	v-33.457H752.803z"/>
<path fill="#FFFFFF" d="M828.522,320.779v-21.592c0-5.863-4.754-10.617-10.617-10.617h-54.483c-5.864,0-10.618,4.754-10.618,10.617
	v21.592H828.522z"/>
<circle fill="#3F3D56" cx="704.773" cy="391.977" r="6.216"/>
<polygon fill="#3F3D56" points="495.986,395.977 471.504,357.893 472.636,357.164 495.868,393.303 514.8,357.216 515.991,357.841 
	"/>
<path fill="#3F3D56" d="M515.923,345.409H457.68v-1.011c0-6.879-5.577-12.455-12.456-12.455l0,0l0,0
	c-6.88,0-12.457,5.576-12.457,12.455l0,0v1.011h-5.723c-6.88-0.009-12.463,5.563-12.472,12.442
	c-0.008,6.879,5.563,12.463,12.442,12.471c0.01,0,0.02,0,0.029,0h5.723v94.135c24.82-0.498-0.18,0.502,24.913,0v-94.135h58.242
	c6.88-0.008,12.45-5.592,12.442-12.471C528.357,350.982,522.791,345.417,515.923,345.409z"/>
<circle fill="#FFFFFF" cx="444.887" cy="357.529" r="4.713"/>
<path fill="#CCCCCC" d="M523.325,419.974h-53.856c-5.297-0.006-9.589-4.299-9.595-9.595v-17.497
	c0.006-5.297,4.298-9.588,9.595-9.594h53.856c5.296,0.006,9.588,4.297,9.594,9.594v17.497
	C532.913,415.675,528.621,419.968,523.325,419.974z"/>
<path fill="#0A95F2" d="M478.89,397.254h34.339c2.046,0,3.703,1.658,3.703,3.703l0,0c0,2.046-1.657,3.704-3.703,3.704H478.89
	c-2.046,0-3.703-1.658-3.703-3.704l0,0C475.187,398.913,476.844,397.254,478.89,397.254z"/>
<path fill="#CCCCCC" d="M996.402,465.458H0.773c-0.427,0-0.773-0.346-0.773-0.771c0-0.428,0.347-0.773,0.773-0.773h995.629
	c0.428,0,0.773,0.346,0.773,0.773C997.176,465.113,996.83,465.458,996.402,465.458z"/>
<path fill="#CCCCCC" d="M827.392,375.525h-74.589c-5.27,0-9.541-4.271-9.541-9.541s4.271-9.541,9.541-9.541h74.589
	c5.27,0,9.541,4.271,9.541,9.541S832.662,375.525,827.392,375.525z"/>
<path fill="#CCCCCC" d="M927.588,153.959c0,0-18.088-1.283-55-3c-44-77-187.003-95.56-187.003-150.959l0,0H861.35
	c36.621,0,66.308,29.687,66.308,66.308L927.588,153.959z"/>
<path fill="#F2F2F2" d="M775.143,20.244c-0.828,0.001-1.499,0.672-1.5,1.5v50.08c0.001,0.828,0.672,1.499,1.5,1.5h31.195
	c0.827-0.001,1.499-0.672,1.5-1.5v-50.08c-0.001-0.828-0.673-1.499-1.5-1.5H775.143z"/>
<path fill="#CCCCCC" d="M861.785,149.921L698.21,51.329c-9.942-3.645-20.854-3.645-30.797,0l-163.575,98.592
	c-11.83,4.336-24.936-1.738-29.271-13.567c-0.922-2.516-1.395-5.173-1.395-7.852l0,0c0-9.572,5.976-18.125,14.962-21.419
	L667.413,2.733c9.942-3.645,20.854-3.645,30.797,0l179.279,104.349c8.986,3.294,14.961,11.848,14.961,21.419l0,0
	c0,12.599-10.213,22.813-22.813,22.813C866.959,151.314,864.301,150.843,861.785,149.921z"/>
</svg>
