<svg xmlns="http://www.w3.org/2000/svg" width="48" height="48" viewBox="0 0 48 48">
  <g id="Group_1" data-name="Group 1" transform="translate(-0.076 -0.076)">
    <rect id="Rectangle_1" data-name="Rectangle 1" width="48" height="48" rx="6" transform="translate(0.076 0.076)" fill="#ef5da8" opacity="0.1"/>
    <path id="Path_1" data-name="Path 1" d="M24.188,18.164a.784.784,0,0,0-.224,0,3.087,3.087,0,1,1,.224,0Z" transform="translate(4.887 2.793)" fill="#ef5da8"/>
    <path id="Path_2" data-name="Path 2" d="M26.85,23.174a4.939,4.939,0,0,1-3.8.926,8.433,8.433,0,0,0,.542-2.966A7.908,7.908,0,0,0,23,18.069a4.956,4.956,0,0,1,3.841.915A2.564,2.564,0,0,1,26.85,23.174Z" transform="translate(5.352 4.189)" fill="#ef5da8"/>
    <path id="Path_3" data-name="Path 3" d="M14.97,18.164a.786.786,0,0,1,.224,0,3.082,3.082,0,1,0-.224,0Z" transform="translate(2.793 2.793)" fill="#ef5da8"/>
    <path id="Path_4" data-name="Path 4" d="M15.332,21.129a8.131,8.131,0,0,0,.561,2.994,5.24,5.24,0,0,1-3.766-.946,2.514,2.514,0,0,1,0-4.193,5.2,5.2,0,0,1,3.8-.936A7.923,7.923,0,0,0,15.332,21.129Z" transform="translate(2.56 4.189)" fill="#ef5da8"/>
    <path id="Path_5" data-name="Path 5" d="M19.832,25.4a1.215,1.215,0,0,0-.279,0,3.7,3.7,0,1,1,.279,0Z" transform="translate(3.723 4.189)" fill="#ef5da8"/>
    <path id="Path_6" data-name="Path 6" d="M16.146,24.788c-1.528.923-1.528,2.44,0,3.354a6.76,6.76,0,0,0,6.336,0c1.528-.923,1.528-2.44,0-3.354A6.76,6.76,0,0,0,16.146,24.788Z" transform="translate(3.491 5.585)" fill="#ef5da8"/>
  </g>
</svg>
