<svg xmlns="http://www.w3.org/2000/svg" width="52" height="52" viewBox="0 0 52 52">
  <g id="Group_1" data-name="Group 1" transform="translate(-0.211 -0.211)">
    <rect id="Rectangle_1" data-name="Rectangle 1" width="52" height="52" rx="6" transform="translate(0.211 0.211)" fill="#8d79f3" opacity="0.1"/>
    <path id="Path_1" data-name="Path 1" d="M16.737,12h-2.08C12.259,12,11,13.259,11,15.646v2.08c0,2.387,1.259,3.646,3.646,3.646h2.08c2.387,0,3.646-1.259,3.646-3.646v-2.08C20.382,13.259,19.123,12,16.737,12Z" transform="translate(3.726 4.065)" fill="#8d79f3"/>
    <path id="Path_2" data-name="Path 2" d="M25.726,12h-2.08C21.259,12,20,13.259,20,15.646v2.08c0,2.387,1.259,3.646,3.646,3.646h2.08c2.387,0,3.646-1.259,3.646-3.646v-2.08C29.371,13.259,28.112,12,25.726,12Z" transform="translate(6.775 4.065)" fill="#8d79f3"/>
    <path id="Path_3" data-name="Path 3" d="M25.726,21h-2.08C21.259,21,20,22.259,20,24.646v2.08c0,2.387,1.259,3.646,3.646,3.646h2.08c2.387,0,3.646-1.259,3.646-3.646v-2.08C29.371,22.259,28.112,21,25.726,21Z" transform="translate(6.775 7.114)" fill="#8d79f3"/>
    <path id="Path_4" data-name="Path 4" d="M16.737,21h-2.08C12.259,21,11,22.257,11,24.641v2.078c0,2.395,1.259,3.652,3.646,3.652h2.08c2.387,0,3.646-1.257,3.646-3.641V24.652C20.382,22.257,19.123,21,16.737,21Z" transform="translate(3.726 7.114)" fill="#8d79f3"/>
  </g>
</svg>
