<svg xmlns="http://www.w3.org/2000/svg" width="63" height="63" viewBox="0 0 63 63">
  <g id="Group_1" data-name="Group 1" transform="translate(0.001 0.001)">
    <rect id="Rectangle_1" data-name="Rectangle 1" width="63" height="63" rx="6" transform="translate(-0.001 -0.001)" fill="#0a95f2" opacity="0.1"/>
    <path id="Path_1" data-name="Path 1" d="M21.461,11A6.462,6.462,0,0,0,21.3,23.923a1.1,1.1,0,0,1,.3,0h.1A6.464,6.464,0,0,0,21.461,11Z" transform="translate(9.23 6.769)" fill="#0a95f2"/>
    <path id="Path_2" data-name="Path 2" d="M29.686,21.95a13.492,13.492,0,0,0-13.974,0A5.531,5.531,0,0,0,13,26.465a5.485,5.485,0,0,0,2.7,4.487,12.577,12.577,0,0,0,6.994,1.971,12.577,12.577,0,0,0,6.994-1.971,5.529,5.529,0,0,0,2.7-4.515A5.517,5.517,0,0,0,29.686,21.95Z" transform="translate(8 12.307)" fill="#0a95f2"/>
  </g>
</svg>
