<svg xmlns="http://www.w3.org/2000/svg" width="54" height="54" viewBox="0 0 54 54">
  <g id="Group_1" data-name="Group 1" transform="translate(0.171 0.171)">
    <rect id="Rectangle_1" data-name="Rectangle 1" width="54" height="54" rx="6" transform="translate(-0.171 -0.171)" fill="#f48f31" opacity="0.1"/>
    <path id="Path_1" data-name="Path 1" d="M32.379,17.58l-7.534-6.027a4.331,4.331,0,0,0-5.233-.012L12.078,17.58a4.505,4.505,0,0,0-1.507,3.945L12.02,30.2a4.274,4.274,0,0,0,4.106,3.474H28.319a4.34,4.34,0,0,0,4.118-3.485l1.449-8.673A4.621,4.621,0,0,0,32.379,17.58ZM23.085,29.07a.863.863,0,0,1-1.725,0V25.62a.863.863,0,0,1,1.725,0Z" transform="translate(4.002 4.056)" fill="#f48f31"/>
  </g>
</svg>
