<svg xmlns="http://www.w3.org/2000/svg" width="50" height="50" viewBox="0 0 50 50">
  <g id="Group_1" data-name="Group 1" transform="translate(-0.413 -0.413)">
    <rect id="Rectangle_1" data-name="Rectangle 1" width="50" height="50" rx="6" transform="translate(0.413 0.413)" fill="#37d14f" opacity="0.1"/>
    <path id="Path_1" data-name="Path 1" d="M19.939,25.878A1.939,1.939,0,1,0,18,23.939,1.939,1.939,0,0,0,19.939,25.878Z" transform="translate(5.268 6.438)" fill="#37d14f"/>
    <path id="Path_2" data-name="Path 2" d="M28.888,20.274V18.9c0-2.967-.714-6.9-6.9-6.9s-6.9,3.934-6.9,6.9v1.373C12.011,20.658,11,22.218,11,26.053V28.1c0,4.5,1.373,5.878,5.878,5.878H27.1c4.5,0,5.878-1.373,5.878-5.878V26.053C32.975,22.218,31.964,20.658,28.888,20.274Zm-6.9,10.119a3.318,3.318,0,1,1,3.318-3.318A3.322,3.322,0,0,1,21.987,30.393ZM16.878,20.175h-.253V18.9c0-3.219.912-5.362,5.362-5.362s5.362,2.143,5.362,5.362v1.286H16.878Z" transform="translate(3.219 3.512)" fill="#37d14f"/>
  </g>
</svg>
