<svg id="Group_1" data-name="Group 1" xmlns="http://www.w3.org/2000/svg" width="26" height="22" viewBox="0 0 26 22">
  <path id="Path_1" data-name="Path 1" d="M8,8.5H19" fill="none" stroke="#292d32" stroke-linecap="round" stroke-width="1.3"/>
  <path id="Path_2" data-name="Path 2" d="M8,14.5H19" fill="none" stroke="#292d32" stroke-linecap="round" stroke-width="1.3"/>
  <path id="Path_3" data-name="Path 3" d="M9.5,6l-1,1L8,7.5c-.175.175-.713.843-.886,1.016-.095.095-.176.215-.047.33.584.519.7.5,1.433,1.155.5.447,1,1,1,1" fill="none" stroke="#292d32" stroke-linecap="round" stroke-width="1"/>
  <path id="Path_4" data-name="Path 4" d="M17,11.5l1,1,.5.5c.175.175.713.843.886,1.016.095.095.177.215.047.33-.584.519-.7.5-1.433,1.155-.5.447-1,1-1,1" fill="none" stroke="#292d32" stroke-linecap="round" stroke-width="1"/>
  <rect id="Rectangle_1" data-name="Rectangle 1" width="24.5" height="20.5" rx="4.25" transform="translate(0.75 0.75)" fill="none" stroke="#292d32" stroke-width="1.5"/>
</svg>
